# Blender v2.79 (sub 0) OBJ File: 'biblioteca.blend'
# www.blender.org
mtllib biblioteca.mtl
o Cube.002
v 3.194362 -1.505499 1.414979
v 3.194362 -1.505499 0.693322
v 3.194362 -1.304740 1.414979
v 3.194362 -1.304740 0.693322
v 3.074874 -1.505499 1.414979
v 3.074874 -1.505499 0.693322
v 3.074874 -1.304740 1.414979
v 3.074874 -1.304740 0.693322
v 3.194362 -1.505499 0.786005
v 3.194362 -1.304740 0.786005
v 3.074874 -1.304740 0.786005
v 3.074874 -1.505499 0.786005
v 3.194362 -1.304740 1.302297
v 3.074874 -1.304740 1.302297
v 3.074874 -1.505499 1.302297
v 3.194362 -1.505499 1.302297
v 2.950545 -1.304740 1.302297
v 2.950545 -1.304740 1.414979
v 2.950545 -1.505499 1.414979
v 2.950545 -1.304740 0.693322
v 2.950545 -1.505499 0.693322
v 2.950545 -1.505499 1.302297
v 2.950545 -1.304740 0.786005
v 2.950545 -1.505499 0.786005
vn 1.0000 0.0000 0.0000
vn 0.0000 1.0000 0.0000
vn 0.0000 0.0000 1.0000
vn 0.0000 -1.0000 0.0000
vn 0.0000 0.0000 -1.0000
vn -1.0000 0.0000 0.0000
usemtl Material.002
s off
f 9//1 2//1 4//1 10//1
f 10//2 4//2 8//2 11//2
f 12//3 11//3 23//3 24//3
f 12//4 6//4 2//4 9//4
f 3//3 7//3 5//3 1//3
f 8//5 4//5 2//5 6//5
f 15//4 12//4 9//4 16//4
f 14//6 11//6 12//6 15//6
f 13//2 10//2 11//2 14//2
f 16//1 9//1 10//1 13//1
f 1//1 16//1 13//1 3//1
f 3//2 13//2 14//2 7//2
f 8//5 6//5 21//5 20//5
f 5//4 15//4 16//4 1//4
f 23//6 20//6 21//6 24//6
f 18//6 17//6 22//6 19//6
f 7//2 14//2 17//2 18//2
f 14//5 15//5 22//5 17//5
f 6//4 12//4 24//4 21//4
f 15//4 5//4 19//4 22//4
f 5//3 7//3 18//3 19//3
f 11//2 8//2 20//2 23//2
o Cube.006_Cube.011
v -0.087387 3.015828 5.722411
v 2.547792 3.015827 5.722411
v -0.087387 3.015828 -5.731068
v 2.547792 3.015827 -5.731068
v -0.087387 2.663750 5.722411
v 2.547792 2.663750 5.722411
v -0.087387 2.663750 -5.731068
v 2.547792 2.663750 -5.731068
vn 0.0000 1.0000 0.0000
vn -0.0000 0.0000 -1.0000
vn -0.0000 -1.0000 0.0000
vn 0.0000 0.0000 1.0000
vn -1.0000 0.0000 0.0000
vn 1.0000 0.0000 0.0000
usemtl Material
s off
f 25//7 26//7 28//7 27//7
f 27//8 28//8 32//8 31//8
f 31//9 32//9 30//9 29//9
f 29//10 30//10 26//10 25//10
f 27//11 31//11 29//11 25//11
f 32//12 28//12 26//12 30//12
o Cube.005_Cube.006
v 2.554456 -4.657172 5.564886
v 2.554456 -0.880844 5.564886
v 2.554456 -4.657172 0.049647
v 2.554456 -0.880844 0.049647
v 2.951751 -4.657172 5.564886
v 2.951751 -0.880844 5.564886
v 2.951751 -4.657172 0.049647
v 2.951751 -0.880844 0.049647
vn -1.0000 0.0000 0.0000
vn 0.0000 0.0000 -1.0000
vn 1.0000 0.0000 0.0000
vn 0.0000 0.0000 1.0000
vn 0.0000 -1.0000 0.0000
vn 0.0000 1.0000 0.0000
usemtl Material.001
s off
f 33//13 34//13 36//13 35//13
f 35//14 36//14 40//14 39//14
f 39//15 40//15 38//15 37//15
f 37//16 38//16 34//16 33//16
f 35//17 39//17 37//17 33//17
f 40//18 36//18 34//18 38//18
o Cube.003_Cube.004
v -0.087387 1.129162 5.722411
v 2.547792 1.129162 5.722411
v -0.087387 1.129162 -5.731068
v 2.547792 1.129162 -5.731068
v -0.087387 0.777085 5.722411
v 2.547792 0.777085 5.722411
v -0.087387 0.777085 -5.731068
v 2.547792 0.777085 -5.731068
vn 0.0000 1.0000 0.0000
vn -0.0000 0.0000 -1.0000
vn -0.0000 -1.0000 0.0000
vn 0.0000 0.0000 1.0000
vn -1.0000 0.0000 0.0000
vn 1.0000 0.0000 0.0000
usemtl Material
s off
f 41//19 42//19 44//19 43//19
f 43//20 44//20 48//20 47//20
f 47//21 48//21 46//21 45//21
f 45//22 46//22 42//22 41//22
f 43//23 47//23 45//23 41//23
f 48//24 44//24 42//24 46//24
o Cube
v -0.257043 -5.206479 -5.962501
v -0.257043 -5.206479 5.962502
v 0.257043 -5.206479 5.962501
v 0.257043 -5.206479 -5.962503
v -0.257043 5.206479 -5.962498
v -0.257043 5.206479 5.962505
v 0.257043 5.206479 5.962500
v 0.257043 5.206479 -5.962502
v -0.257043 -5.206479 5.476726
v 0.257043 -5.206479 5.476724
v -0.257043 5.206479 5.476728
v 0.257043 5.206479 5.476723
v 0.257043 -5.206479 5.962501
v 0.257043 5.206479 5.962500
v 0.257043 -5.206479 5.476724
v 0.257043 5.206479 5.476723
v 0.257043 -5.206479 -5.467646
v 0.257043 5.206479 -5.467644
v -0.257043 -5.206479 -5.467643
v -0.257043 5.206479 -5.467640
v 2.560665 -5.206479 -5.467646
v 2.560665 -5.206479 -5.962503
v 2.560665 5.206479 -5.962502
v 2.560665 5.206479 -5.467644
v 2.560665 -5.206479 5.962501
v 2.560665 5.206479 5.962500
v 2.560665 -5.206479 5.476724
v 2.560665 5.206479 5.476723
v -0.257043 4.582461 -5.962498
v -0.257043 4.582461 5.962505
v 0.257043 4.582461 5.962500
v 0.257043 4.582461 -5.962502
v 0.257043 4.582461 5.476723
v -0.257043 4.582461 5.476728
v 0.257043 4.582461 5.962500
v 0.257043 4.582461 5.476723
v -0.257043 4.582461 -5.467640
v 0.257043 4.582461 -5.467644
v 2.560665 4.582461 -5.962502
v 2.560665 4.582461 5.962500
v 2.560665 4.582461 5.476723
v 2.560665 4.582461 -5.467644
v 0.257043 -4.561386 5.476724
v -0.257043 -4.561386 5.476726
v 0.257043 -4.561386 5.476724
v -0.257043 -4.561386 -5.467643
v 0.257043 -4.561386 -5.467646
v 2.560665 -4.561386 5.476724
v 2.560665 -4.561386 -5.467646
v -0.257043 -4.561386 -5.962501
v -0.257043 -4.561386 5.962502
v 0.257043 -4.561386 5.962501
v 0.257043 -4.561386 -5.962503
v 0.257043 -4.561386 5.962501
v 2.560665 -4.561386 -5.962503
v 2.560665 -4.561386 5.962501
v 2.535256 -4.561386 5.476724
v 2.535256 -5.206479 5.476724
v 2.535256 -5.206479 -5.467646
v 2.535256 5.206479 5.476723
v 2.535256 5.206479 -5.467644
v 2.535256 -4.561386 -5.467646
v 2.535256 4.582461 5.476723
v 2.535256 4.582461 -5.467644
vn 0.0000 -1.0000 0.0000
vn 0.0000 1.0000 0.0000
vn -1.0000 0.0000 0.0000
vn 0.0000 -0.0000 1.0000
vn -0.0000 0.0000 -1.0000
vn 1.0000 0.0000 0.0000
usemtl Material
s off
f 57//25 58//25 51//25 50//25
f 59//26 54//26 55//26 60//26
f 82//27 78//27 54//27 59//27
f 78//28 79//28 55//28 54//28
f 63//25 75//25 73//25 61//25
f 98//29 101//29 52//29 49//29
f 79//28 83//28 62//28 55//28
f 85//27 82//27 59//27 68//27
f 68//26 59//26 60//26 66//26
f 67//25 65//25 58//25 57//25
f 93//29 96//29 75//29 63//29
f 55//28 62//28 64//28 60//28
f 58//28 63//28 61//28 51//28
f 91//28 93//28 63//28 58//28
f 49//25 52//25 65//25 67//25
f 53//26 68//26 66//26 56//26
f 77//27 85//27 68//27 53//27
f 66//29 109//29 112//29 86//29
f 90//30 87//30 71//30 72//30
f 88//30 89//30 76//30 74//30
f 86//28 90//28 72//28 66//28
f 62//26 74//26 76//26 64//26
f 66//26 72//26 71//26 56//26
f 83//28 88//28 74//28 62//28
f 101//29 103//29 70//29 52//29
f 52//25 70//25 69//25 65//25
f 56//29 71//29 87//29 80//29
f 102//28 104//28 88//28 83//28
f 95//28 97//28 90//28 86//28
f 104//30 96//30 89//30 88//30
f 97//30 103//30 87//30 90//30
f 91//30 95//30 86//30 81//30
f 98//27 94//27 85//27 77//27
f 60//28 64//28 84//28 81//28
f 64//29 76//29 89//29 84//29
f 94//27 92//27 82//27 85//27
f 100//28 102//28 83//28 79//28
f 53//29 56//29 80//29 77//29
f 99//28 100//28 79//28 78//28
f 92//27 99//27 78//27 82//27
f 57//27 50//27 99//27 92//27
f 50//28 51//28 100//28 99//28
f 51//28 61//28 102//28 100//28
f 67//27 57//27 92//27 94//27
f 49//27 67//27 94//27 98//27
f 81//28 111//28 108//28 60//28
f 69//30 70//30 103//30 97//30
f 73//30 75//30 96//30 104//30
f 65//28 69//28 97//28 95//28
f 61//28 73//28 104//28 102//28
f 80//29 87//29 103//29 101//29
f 81//28 84//28 93//28 91//28
f 84//29 89//29 96//29 93//29
f 77//29 80//29 101//29 98//29
f 111//30 112//30 109//30 108//30
f 106//30 107//30 110//30 105//30
f 65//25 107//25 106//25 58//25
f 95//29 110//29 107//29 65//29
f 91//26 105//26 110//26 95//26
f 60//26 108//26 109//26 66//26
f 86//25 112//25 111//25 81//25
f 58//28 106//28 105//28 91//28
o Cube.001
v -0.087387 -0.576575 5.722411
v 2.547792 -0.576575 5.722411
v -0.087387 -0.576575 -5.731068
v 2.547792 -0.576575 -5.731068
v -0.087387 -0.928652 5.722411
v 2.547792 -0.928653 5.722411
v -0.087387 -0.928652 -5.731068
v 2.547792 -0.928653 -5.731068
vn 0.0000 1.0000 0.0000
vn -0.0000 0.0000 -1.0000
vn -0.0000 -1.0000 0.0000
vn 0.0000 0.0000 1.0000
vn -1.0000 0.0000 0.0000
vn 1.0000 0.0000 0.0000
usemtl Material
s off
f 113//31 114//31 116//31 115//31
f 115//32 116//32 120//32 119//32
f 119//33 120//33 118//33 117//33
f 117//34 118//34 114//34 113//34
f 115//35 119//35 117//35 113//35
f 120//36 116//36 114//36 118//36
