# Blender v2.79 (sub 0) OBJ File: 'geam2.blend'
# www.blender.org
mtllib geam2.mtl
o Cube
v 0.179433 -3.000000 -1.999999
v 0.179433 -3.000000 1.999999
v -0.120567 -3.000000 1.999999
v -0.120567 -3.000000 -2.000000
v 0.179433 3.000000 -1.999998
v 0.179433 3.000000 2.000000
v -0.120567 3.000000 1.999998
v -0.120567 3.000000 -1.999999
v -0.120567 -2.410040 1.606693
v 0.179432 0.233510 1.606693
v 0.179433 -2.410040 1.606693
v -0.120567 -0.558318 1.606693
v 0.179433 2.410040 1.606693
v -0.120567 2.410040 1.606693
v -0.120567 -2.410040 -1.606693
v 0.179433 -2.410040 -1.606693
v -0.120567 2.410040 -1.606692
v 0.179433 2.410040 -1.606692
vn 0.0000 -1.0000 -0.0000
vn 0.0000 1.0000 -0.0000
vn 1.0000 0.0000 -0.0000
vn -0.0000 -0.0000 1.0000
vn -1.0000 0.0000 -0.0000
vn 0.0000 0.0000 -1.0000
usemtl Material
s off
f 1//1 2//1 3//1 4//1
f 5//2 8//2 7//2 6//2
f 1//3 5//3 6//3 10//3 13//3 18//3 16//3
f 2//4 6//4 7//4 3//4
f 3//5 7//5 8//5 4//5 15//5 17//5 14//5 12//5
f 5//6 1//6 4//6 8//6
f 13//1 14//1 17//1 18//1
f 16//2 15//2 9//2 11//2
f 16//3 11//3 10//3 6//3 2//3 1//3
f 18//4 17//4 15//4 16//4
f 11//6 9//6 12//6 14//6 13//6 10//6
f 9//5 15//5 4//5 3//5 12//5
o Cube.001
v 0.085807 -2.410040 -1.606693
v 0.085807 -2.410040 1.606693
v -0.026941 -2.410040 1.606693
v -0.026941 -2.410040 -1.606693
v 0.085807 2.410040 -1.606692
v 0.085806 2.410040 1.606694
v -0.026941 2.410040 1.606692
v -0.026941 2.410040 -1.606693
v -0.026941 -1.942228 1.294818
v 0.085806 0.846634 1.294818
v 0.085807 -1.942228 1.294818
v -0.026941 0.296062 1.294818
v 0.085806 1.942228 1.294818
v -0.026941 1.942228 1.294818
v -0.026941 -1.942228 -1.294818
v 0.085807 -1.942228 -1.294818
v -0.026941 1.942228 -1.294817
v 0.085807 1.942228 -1.294817
vn 0.0000 -1.0000 0.0000
vn 0.0000 1.0000 0.0000
vn 1.0000 -0.0000 0.0000
vn -0.0000 -0.0000 1.0000
vn -1.0000 0.0000 -0.0000
vn 0.0000 0.0000 -1.0000
usemtl Material
s off
f 19//7 20//7 21//7 22//7
f 23//8 26//8 25//8 24//8
f 19//9 23//9 24//9 28//9 31//9 36//9 34//9
f 20//10 24//10 25//10 21//10
f 21//11 25//11 30//11 27//11 33//11 22//11
f 23//12 19//12 22//12 26//12
f 31//7 32//7 35//7 36//7
f 34//8 33//8 27//8 29//8
f 34//9 29//9 28//9 24//9 20//9 19//9
f 36//10 35//10 33//10 34//10
f 29//12 27//12 30//12 32//12 31//12 28//12
f 22//11 33//11 35//11 32//11 30//11 25//11 26//11
