# Blender v2.79 (sub 0) OBJ File: ''
# www.blender.org
mtllib untitled.mtl
o Cube.004_Cube.015
v 2.554456 -4.657172 -0.048171
v 2.554456 -0.880844 -0.048171
v 2.554456 -4.657172 -5.563411
v 2.554456 -0.880844 -5.563411
v 2.951751 -4.657172 -0.048171
v 2.951751 -0.880844 -0.048171
v 2.951751 -4.657172 -5.563411
v 2.951751 -0.880844 -5.563411
vn -1.0000 0.0000 0.0000
vn 0.0000 0.0000 -1.0000
vn 1.0000 0.0000 0.0000
vn 0.0000 0.0000 1.0000
vn 0.0000 -1.0000 0.0000
vn 0.0000 1.0000 0.0000
usemtl None
s off
f 1//1 2//1 4//1 3//1
f 3//2 4//2 8//2 7//2
f 7//3 8//3 6//3 5//3
f 5//4 6//4 2//4 1//4
f 3//5 7//5 5//5 1//5
f 8//6 4//6 2//6 6//6
o Cube.006_Cube.011
v -0.087387 3.015828 5.722411
v 2.547792 3.015827 5.722411
v -0.087387 3.015828 -5.731068
v 2.547792 3.015827 -5.731068
v -0.087387 2.663750 5.722411
v 2.547792 2.663750 5.722411
v -0.087387 2.663750 -5.731068
v 2.547792 2.663750 -5.731068
vn 0.0000 1.0000 0.0000
vn -0.0000 0.0000 -1.0000
vn -0.0000 -1.0000 0.0000
vn 0.0000 0.0000 1.0000
vn -1.0000 0.0000 0.0000
vn 1.0000 0.0000 0.0000
usemtl None
s off
f 9//7 10//7 12//7 11//7
f 11//8 12//8 16//8 15//8
f 15//9 16//9 14//9 13//9
f 13//10 14//10 10//10 9//10
f 11//11 15//11 13//11 9//11
f 16//12 12//12 10//12 14//12
o Cube.005_Cube.006
v 2.554456 -4.657172 5.564886
v 2.554456 -0.880844 5.564886
v 2.554456 -4.657172 0.049647
v 2.554456 -0.880844 0.049647
v 2.951751 -4.657172 5.564886
v 2.951751 -0.880844 5.564886
v 2.951751 -4.657172 0.049647
v 2.951751 -0.880844 0.049647
vn -1.0000 0.0000 0.0000
vn 0.0000 0.0000 -1.0000
vn 1.0000 0.0000 0.0000
vn 0.0000 0.0000 1.0000
vn 0.0000 -1.0000 0.0000
vn 0.0000 1.0000 0.0000
usemtl None
s off
f 17//13 18//13 20//13 19//13
f 19//14 20//14 24//14 23//14
f 23//15 24//15 22//15 21//15
f 21//16 22//16 18//16 17//16
f 19//17 23//17 21//17 17//17
f 24//18 20//18 18//18 22//18
o Cube.003_Cube.004
v -0.087387 1.129162 5.722411
v 2.547792 1.129162 5.722411
v -0.087387 1.129162 -5.731068
v 2.547792 1.129162 -5.731068
v -0.087387 0.777085 5.722411
v 2.547792 0.777085 5.722411
v -0.087387 0.777085 -5.731068
v 2.547792 0.777085 -5.731068
vn 0.0000 1.0000 0.0000
vn -0.0000 0.0000 -1.0000
vn -0.0000 -1.0000 0.0000
vn 0.0000 0.0000 1.0000
vn -1.0000 0.0000 0.0000
vn 1.0000 0.0000 0.0000
usemtl None
s off
f 25//19 26//19 28//19 27//19
f 27//20 28//20 32//20 31//20
f 31//21 32//21 30//21 29//21
f 29//22 30//22 26//22 25//22
f 27//23 31//23 29//23 25//23
f 32//24 28//24 26//24 30//24
o Cube
v -0.257043 -5.206479 -5.962501
v -0.257043 -5.206479 5.962502
v 0.257043 -5.206479 5.962501
v 0.257043 -5.206479 -5.962503
v -0.257043 5.206479 -5.962498
v -0.257043 5.206479 5.962505
v 0.257043 5.206479 5.962500
v 0.257043 5.206479 -5.962502
v -0.257043 -5.206479 5.476726
v 0.257043 -5.206479 5.476724
v -0.257043 5.206479 5.476728
v 0.257043 5.206479 5.476723
v 0.257043 -5.206479 5.962501
v 0.257043 5.206479 5.962500
v 0.257043 -5.206479 5.476724
v 0.257043 5.206479 5.476723
v 0.257043 -5.206479 -5.467646
v 0.257043 5.206479 -5.467644
v -0.257043 -5.206479 -5.467643
v -0.257043 5.206479 -5.467640
v 2.560665 -5.206479 -5.467646
v 2.560665 -5.206479 -5.962503
v 2.560665 5.206479 -5.962502
v 2.560665 5.206479 -5.467644
v 2.560665 -5.206479 5.962501
v 2.560665 5.206479 5.962500
v 2.560665 -5.206479 5.476724
v 2.560665 5.206479 5.476723
v -0.257043 4.582461 -5.962498
v -0.257043 4.582461 5.962505
v 0.257043 4.582461 5.962500
v 0.257043 4.582461 -5.962502
v 0.257043 4.582461 5.476723
v -0.257043 4.582461 5.476728
v 0.257043 4.582461 5.962500
v 0.257043 4.582461 5.476723
v -0.257043 4.582461 -5.467640
v 0.257043 4.582461 -5.467644
v 2.560665 4.582461 -5.962502
v 2.560665 4.582461 5.962500
v 2.560665 4.582461 5.476723
v 2.560665 4.582461 -5.467644
v 0.257043 -4.561386 5.476724
v -0.257043 -4.561386 5.476726
v 0.257043 -4.561386 5.476724
v -0.257043 -4.561386 -5.467643
v 0.257043 -4.561386 -5.467646
v 2.560665 -4.561386 5.476724
v 2.560665 -4.561386 -5.467646
v -0.257043 -4.561386 -5.962501
v -0.257043 -4.561386 5.962502
v 0.257043 -4.561386 5.962501
v 0.257043 -4.561386 -5.962503
v 0.257043 -4.561386 5.962501
v 2.560665 -4.561386 -5.962503
v 2.560665 -4.561386 5.962501
v 2.535256 -4.561386 5.476724
v 2.535256 -5.206479 5.476724
v 2.535256 -5.206479 -5.467646
v 2.535256 5.206479 5.476723
v 2.535256 5.206479 -5.467644
v 2.535256 -4.561386 -5.467646
v 2.535256 4.582461 5.476723
v 2.535256 4.582461 -5.467644
vn 0.0000 -1.0000 0.0000
vn 0.0000 1.0000 0.0000
vn -1.0000 0.0000 0.0000
vn 0.0000 -0.0000 1.0000
vn -0.0000 0.0000 -1.0000
vn 1.0000 0.0000 0.0000
usemtl Material
s off
f 41//25 42//25 35//25 34//25
f 43//26 38//26 39//26 44//26
f 66//27 62//27 38//27 43//27
f 62//28 63//28 39//28 38//28
f 47//25 59//25 57//25 45//25
f 82//29 85//29 36//29 33//29
f 63//28 67//28 46//28 39//28
f 69//27 66//27 43//27 52//27
f 52//26 43//26 44//26 50//26
f 51//25 49//25 42//25 41//25
f 77//29 80//29 59//29 47//29
f 39//28 46//28 48//28 44//28
f 42//28 47//28 45//28 35//28
f 75//28 77//28 47//28 42//28
f 33//25 36//25 49//25 51//25
f 37//26 52//26 50//26 40//26
f 61//27 69//27 52//27 37//27
f 50//29 93//29 96//29 70//29
f 74//30 71//30 55//30 56//30
f 72//30 73//30 60//30 58//30
f 70//28 74//28 56//28 50//28
f 46//26 58//26 60//26 48//26
f 50//26 56//26 55//26 40//26
f 67//28 72//28 58//28 46//28
f 85//29 87//29 54//29 36//29
f 36//25 54//25 53//25 49//25
f 40//29 55//29 71//29 64//29
f 86//28 88//28 72//28 67//28
f 79//28 81//28 74//28 70//28
f 88//30 80//30 73//30 72//30
f 81//30 87//30 71//30 74//30
f 75//30 79//30 70//30 65//30
f 82//27 78//27 69//27 61//27
f 44//28 48//28 68//28 65//28
f 48//29 60//29 73//29 68//29
f 78//27 76//27 66//27 69//27
f 84//28 86//28 67//28 63//28
f 37//29 40//29 64//29 61//29
f 83//28 84//28 63//28 62//28
f 76//27 83//27 62//27 66//27
f 41//27 34//27 83//27 76//27
f 34//28 35//28 84//28 83//28
f 35//28 45//28 86//28 84//28
f 51//27 41//27 76//27 78//27
f 33//27 51//27 78//27 82//27
f 65//28 95//28 92//28 44//28
f 53//30 54//30 87//30 81//30
f 57//30 59//30 80//30 88//30
f 49//28 53//28 81//28 79//28
f 45//28 57//28 88//28 86//28
f 64//29 71//29 87//29 85//29
f 65//28 68//28 77//28 75//28
f 68//29 73//29 80//29 77//29
f 61//29 64//29 85//29 82//29
f 95//30 96//30 93//30 92//30
f 90//30 91//30 94//30 89//30
f 49//25 91//25 90//25 42//25
f 79//29 94//29 91//29 49//29
f 75//26 89//26 94//26 79//26
f 44//26 92//26 93//26 50//26
f 70//25 96//25 95//25 65//25
f 42//28 90//28 89//28 75//28
o Cube.001
v -0.087387 -0.576575 5.722411
v 2.547792 -0.576575 5.722411
v -0.087387 -0.576575 -5.731068
v 2.547792 -0.576575 -5.731068
v -0.087387 -0.928652 5.722411
v 2.547792 -0.928653 5.722411
v -0.087387 -0.928652 -5.731068
v 2.547792 -0.928653 -5.731068
vn 0.0000 1.0000 0.0000
vn -0.0000 0.0000 -1.0000
vn -0.0000 -1.0000 0.0000
vn 0.0000 0.0000 1.0000
vn -1.0000 0.0000 0.0000
vn 1.0000 0.0000 0.0000
usemtl None
s off
f 97//31 98//31 100//31 99//31
f 99//32 100//32 104//32 103//32
f 103//33 104//33 102//33 101//33
f 101//34 102//34 98//34 97//34
f 99//35 103//35 101//35 97//35
f 104//36 100//36 98//36 102//36
o Cylinder.001
v 2.834276 -2.346500 0.170242
v 3.069271 -2.346500 0.170242
v 2.834276 -2.403243 0.175831
v 3.069271 -2.403243 0.175831
v 2.834276 -2.457806 0.192382
v 3.069271 -2.457806 0.192382
v 2.834276 -2.508090 0.219260
v 3.069271 -2.508090 0.219260
v 2.834276 -2.552166 0.255432
v 3.069271 -2.552166 0.255432
v 2.834276 -2.588337 0.299507
v 3.069271 -2.588337 0.299507
v 2.834276 -2.615215 0.349792
v 3.069271 -2.615215 0.349792
v 2.834276 -2.631766 0.404354
v 3.069271 -2.631766 0.404354
v 2.834276 -2.637355 0.461097
v 3.069271 -2.637355 0.461097
v 2.834276 -2.631766 0.517840
v 3.069271 -2.631766 0.517840
v 2.834276 -2.615215 0.572403
v 3.069271 -2.615215 0.572403
v 2.834276 -2.588337 0.622688
v 3.069271 -2.588337 0.622688
v 2.834276 -2.552166 0.666763
v 3.069271 -2.552166 0.666763
v 2.834276 -2.508090 0.702934
v 3.069271 -2.508090 0.702934
v 2.834276 -2.457805 0.729812
v 3.069271 -2.457805 0.729812
v 2.834276 -2.403243 0.746364
v 3.069271 -2.403243 0.746364
v 2.834276 -2.346500 0.751952
v 3.069271 -2.346500 0.751952
v 2.834276 -2.289757 0.746364
v 3.069271 -2.289757 0.746364
v 2.834277 -2.235195 0.729812
v 3.069271 -2.235195 0.729812
v 2.834277 -2.184910 0.702934
v 3.069271 -2.184910 0.702934
v 2.834277 -2.140835 0.666763
v 3.069271 -2.140835 0.666763
v 2.834277 -2.104663 0.622687
v 3.069271 -2.104663 0.622687
v 2.834277 -2.077785 0.572402
v 3.069271 -2.077785 0.572402
v 2.834277 -2.061234 0.517840
v 3.069271 -2.061234 0.517840
v 2.834277 -2.055645 0.461097
v 3.069271 -2.055645 0.461097
v 2.834277 -2.061234 0.404354
v 3.069271 -2.061234 0.404354
v 2.834277 -2.077785 0.349792
v 3.069271 -2.077785 0.349792
v 2.834277 -2.104663 0.299507
v 3.069271 -2.104663 0.299507
v 2.834277 -2.140835 0.255432
v 3.069271 -2.140835 0.255432
v 2.834277 -2.184910 0.219260
v 3.069271 -2.184910 0.219260
v 2.834277 -2.235195 0.192382
v 3.069271 -2.235195 0.192382
v 2.834276 -2.289758 0.175831
v 3.069271 -2.289758 0.175831
vn 0.0000 -0.0980 -0.9952
vn 0.0000 -0.2903 -0.9569
vn 0.0000 -0.4714 -0.8819
vn 0.0000 -0.6344 -0.7730
vn 0.0000 -0.7730 -0.6344
vn 0.0000 -0.8819 -0.4714
vn 0.0000 -0.9569 -0.2903
vn 0.0000 -0.9952 -0.0980
vn 0.0000 -0.9952 0.0980
vn 0.0000 -0.9569 0.2903
vn 0.0000 -0.8819 0.4714
vn 0.0000 -0.7730 0.6344
vn 0.0000 -0.6344 0.7730
vn 0.0000 -0.4714 0.8819
vn 0.0000 -0.2903 0.9569
vn 0.0000 -0.0980 0.9952
vn 0.0000 0.0980 0.9952
vn 0.0000 0.2903 0.9569
vn 0.0000 0.4714 0.8819
vn 0.0000 0.6344 0.7730
vn 0.0000 0.7730 0.6344
vn 0.0000 0.8819 0.4714
vn 0.0000 0.9569 0.2903
vn 0.0000 0.9952 0.0980
vn 0.0000 0.9952 -0.0980
vn 0.0000 0.9569 -0.2903
vn 0.0000 0.8819 -0.4714
vn 0.0000 0.7730 -0.6344
vn 0.0000 0.6344 -0.7730
vn 0.0000 0.4714 -0.8819
vn 1.0000 -0.0000 0.0000
vn 0.0000 0.2903 -0.9569
vn 0.0000 0.0980 -0.9952
vn -1.0000 -0.0000 -0.0000
usemtl None
s off
f 105//37 106//37 108//37 107//37
f 107//38 108//38 110//38 109//38
f 109//39 110//39 112//39 111//39
f 111//40 112//40 114//40 113//40
f 113//41 114//41 116//41 115//41
f 115//42 116//42 118//42 117//42
f 117//43 118//43 120//43 119//43
f 119//44 120//44 122//44 121//44
f 121//45 122//45 124//45 123//45
f 123//46 124//46 126//46 125//46
f 125//47 126//47 128//47 127//47
f 127//48 128//48 130//48 129//48
f 129//49 130//49 132//49 131//49
f 131//50 132//50 134//50 133//50
f 133//51 134//51 136//51 135//51
f 135//52 136//52 138//52 137//52
f 137//53 138//53 140//53 139//53
f 139//54 140//54 142//54 141//54
f 141//55 142//55 144//55 143//55
f 143//56 144//56 146//56 145//56
f 145//57 146//57 148//57 147//57
f 147//58 148//58 150//58 149//58
f 149//59 150//59 152//59 151//59
f 151//60 152//60 154//60 153//60
f 153//61 154//61 156//61 155//61
f 155//62 156//62 158//62 157//62
f 157//63 158//63 160//63 159//63
f 159//64 160//64 162//64 161//64
f 161//65 162//65 164//65 163//65
f 163//66 164//66 166//66 165//66
f 108//67 106//67 168//67 166//67 164//67 162//67 160//67 158//67 156//67 154//67 152//67 150//67 148//67 146//67 144//67 142//67 140//67 138//67 136//67 134//67 132//67 130//67 128//67 126//67 124//67 122//67 120//67 118//67 116//67 114//67 112//67 110//67
f 165//68 166//68 168//68 167//68
f 167//69 168//69 106//69 105//69
f 105//70 107//70 109//70 111//70 113//70 115//70 117//70 119//70 121//70 123//70 125//70 127//70 129//70 131//70 133//70 135//70 137//70 139//70 141//70 143//70 145//70 147//70 149//70 151//70 153//70 155//70 157//70 159//70 161//70 163//70 165//70 167//70
o Cylinder
v 2.834276 -2.346500 -0.810440
v 3.069271 -2.346500 -0.810440
v 2.834276 -2.403243 -0.804851
v 3.069271 -2.403243 -0.804851
v 2.834276 -2.457806 -0.788300
v 3.069271 -2.457806 -0.788300
v 2.834276 -2.508090 -0.761422
v 3.069271 -2.508090 -0.761422
v 2.834276 -2.552166 -0.725250
v 3.069271 -2.552166 -0.725250
v 2.834276 -2.588337 -0.681175
v 3.069271 -2.588337 -0.681175
v 2.834276 -2.615215 -0.630890
v 3.069271 -2.615215 -0.630890
v 2.834276 -2.631766 -0.576328
v 3.069271 -2.631766 -0.576328
v 2.834276 -2.637355 -0.519585
v 3.069271 -2.637355 -0.519585
v 2.834276 -2.631766 -0.462842
v 3.069271 -2.631766 -0.462842
v 2.834276 -2.615215 -0.408279
v 3.069271 -2.615215 -0.408279
v 2.834276 -2.588337 -0.357994
v 3.069271 -2.588337 -0.357994
v 2.834276 -2.552166 -0.313919
v 3.069271 -2.552166 -0.313919
v 2.834276 -2.508090 -0.277748
v 3.069271 -2.508090 -0.277748
v 2.834276 -2.457805 -0.250870
v 3.069271 -2.457805 -0.250870
v 2.834276 -2.403243 -0.234319
v 3.069271 -2.403243 -0.234319
v 2.834276 -2.346500 -0.228730
v 3.069271 -2.346500 -0.228730
v 2.834276 -2.289757 -0.234319
v 3.069271 -2.289757 -0.234319
v 2.834277 -2.235195 -0.250870
v 3.069271 -2.235195 -0.250870
v 2.834277 -2.184910 -0.277748
v 3.069271 -2.184910 -0.277748
v 2.834277 -2.140835 -0.313919
v 3.069271 -2.140835 -0.313919
v 2.834277 -2.104663 -0.357995
v 3.069271 -2.104663 -0.357995
v 2.834277 -2.077785 -0.408280
v 3.069271 -2.077785 -0.408280
v 2.834277 -2.061234 -0.462842
v 3.069271 -2.061234 -0.462842
v 2.834277 -2.055645 -0.519585
v 3.069271 -2.055645 -0.519585
v 2.834277 -2.061234 -0.576328
v 3.069271 -2.061234 -0.576328
v 2.834277 -2.077785 -0.630890
v 3.069271 -2.077785 -0.630890
v 2.834277 -2.104663 -0.681175
v 3.069271 -2.104663 -0.681175
v 2.834277 -2.140835 -0.725251
v 3.069271 -2.140835 -0.725251
v 2.834277 -2.184910 -0.761422
v 3.069271 -2.184910 -0.761422
v 2.834277 -2.235195 -0.788300
v 3.069271 -2.235195 -0.788300
v 2.834276 -2.289758 -0.804851
v 3.069271 -2.289757 -0.804851
vn 0.0000 -0.0980 -0.9952
vn 0.0000 -0.2903 -0.9569
vn 0.0000 -0.4714 -0.8819
vn 0.0000 -0.6344 -0.7730
vn 0.0000 -0.7730 -0.6344
vn 0.0000 -0.8819 -0.4714
vn 0.0000 -0.9569 -0.2903
vn 0.0000 -0.9952 -0.0980
vn 0.0000 -0.9952 0.0980
vn 0.0000 -0.9569 0.2903
vn 0.0000 -0.8819 0.4714
vn 0.0000 -0.7730 0.6344
vn 0.0000 -0.6344 0.7730
vn 0.0000 -0.4714 0.8819
vn 0.0000 -0.2903 0.9569
vn 0.0000 -0.0980 0.9952
vn 0.0000 0.0980 0.9952
vn 0.0000 0.2903 0.9569
vn 0.0000 0.4714 0.8819
vn 0.0000 0.6344 0.7730
vn 0.0000 0.7730 0.6344
vn 0.0000 0.8819 0.4714
vn 0.0000 0.9569 0.2903
vn 0.0000 0.9952 0.0980
vn 0.0000 0.9952 -0.0980
vn 0.0000 0.9569 -0.2903
vn 0.0000 0.8819 -0.4714
vn 0.0000 0.7730 -0.6344
vn 0.0000 0.6344 -0.7730
vn 0.0000 0.4714 -0.8819
vn 1.0000 -0.0000 0.0000
vn -0.0000 0.2903 -0.9569
vn 0.0000 0.0980 -0.9952
vn -1.0000 0.0000 -0.0000
usemtl None
s off
f 169//71 170//71 172//71 171//71
f 171//72 172//72 174//72 173//72
f 173//73 174//73 176//73 175//73
f 175//74 176//74 178//74 177//74
f 177//75 178//75 180//75 179//75
f 179//76 180//76 182//76 181//76
f 181//77 182//77 184//77 183//77
f 183//78 184//78 186//78 185//78
f 185//79 186//79 188//79 187//79
f 187//80 188//80 190//80 189//80
f 189//81 190//81 192//81 191//81
f 191//82 192//82 194//82 193//82
f 193//83 194//83 196//83 195//83
f 195//84 196//84 198//84 197//84
f 197//85 198//85 200//85 199//85
f 199//86 200//86 202//86 201//86
f 201//87 202//87 204//87 203//87
f 203//88 204//88 206//88 205//88
f 205//89 206//89 208//89 207//89
f 207//90 208//90 210//90 209//90
f 209//91 210//91 212//91 211//91
f 211//92 212//92 214//92 213//92
f 213//93 214//93 216//93 215//93
f 215//94 216//94 218//94 217//94
f 217//95 218//95 220//95 219//95
f 219//96 220//96 222//96 221//96
f 221//97 222//97 224//97 223//97
f 223//98 224//98 226//98 225//98
f 225//99 226//99 228//99 227//99
f 227//100 228//100 230//100 229//100
f 172//101 170//101 232//101 230//101 228//101 226//101 224//101 222//101 220//101 218//101 216//101 214//101 212//101 210//101 208//101 206//101 204//101 202//101 200//101 198//101 196//101 194//101 192//101 190//101 188//101 186//101 184//101 182//101 180//101 178//101 176//101 174//101
f 229//102 230//102 232//102 231//102
f 231//103 232//103 170//103 169//103
f 169//104 171//104 173//104 175//104 177//104 179//104 181//104 183//104 185//104 187//104 189//104 191//104 193//104 195//104 197//104 199//104 201//104 203//104 205//104 207//104 209//104 211//104 213//104 215//104 217//104 219//104 221//104 223//104 225//104 227//104 229//104 231//104
