# Blender v2.79 (sub 0) OBJ File: 'Canapea2[1].blend'
# www.blender.org
mtllib Canapea2[1].mtl
o Cube
v 1.000000 0.262426 -0.763804
v 1.000000 0.262426 1.236196
v 1.599820 1.627654 1.236196
v 1.599821 1.627654 -0.763804
v 1.000000 1.627654 -0.763804
v 0.999999 1.627654 1.236196
v 1.599820 0.262426 1.236196
v 1.599820 0.262426 -0.763804
v 1.599820 0.262426 -1.290832
v 1.000000 0.262426 -1.290832
v 1.000000 1.627654 -1.290832
v 1.599821 1.627654 -1.290832
v 1.000000 2.521319 -0.763804
v 1.678392 2.521319 -0.763804
v 1.678391 2.521319 1.236196
v 0.947877 2.521319 1.236196
v 1.000000 2.521320 -1.290832
v 1.678392 2.521320 -1.290832
v 1.001598 4.006392 -0.880227
v 1.001598 4.006392 -1.407255
v 1.074331 2.844825 -0.763804
v 1.547699 2.844825 -0.763804
v 1.547698 2.844825 1.236196
v 1.022207 2.844825 1.236196
v 1.074331 2.844825 -1.290832
v 1.547699 2.844825 -1.290832
v 0.919935 1.627654 -0.603673
v 0.919934 1.627654 1.076065
v 0.919935 1.639092 -0.603673
v 0.919934 1.639092 1.076065
v 0.976918 1.639092 -0.707719
v 0.976916 1.639092 1.180111
v 0.945728 1.913604 -0.707719
v 0.945727 1.913604 1.180111
v 1.322492 -0.018934 0.785794
v 1.322492 0.281592 0.785794
v 1.351806 -0.018934 0.788681
v 1.351806 0.281592 0.788681
v 1.379995 -0.018934 0.797232
v 1.379995 0.281592 0.797232
v 1.405973 -0.018934 0.811118
v 1.405973 0.281592 0.811118
v 1.428743 -0.018934 0.829805
v 1.428743 0.281592 0.829805
v 1.447430 -0.018934 0.852575
v 1.447430 0.281592 0.852575
v 1.461316 -0.018934 0.878554
v 1.461316 0.281592 0.878554
v 1.469867 -0.018934 0.906742
v 1.469867 0.281592 0.906742
v 1.472754 -0.018934 0.936057
v 1.472754 0.281592 0.936057
v 1.469867 -0.018934 0.965371
v 1.469867 0.281592 0.965371
v 1.461316 -0.018934 0.993560
v 1.461316 0.281592 0.993560
v 1.447430 -0.018934 1.019538
v 1.447430 0.281592 1.019538
v 1.428743 -0.018934 1.042309
v 1.428743 0.281592 1.042309
v 1.405973 -0.018934 1.060996
v 1.405973 0.281592 1.060996
v 1.379995 -0.018934 1.074881
v 1.379995 0.281592 1.074881
v 1.351806 -0.018934 1.083432
v 1.351806 0.281592 1.083432
v 1.322492 -0.018934 1.086319
v 1.322492 0.281592 1.086319
v 1.293177 -0.018934 1.083432
v 1.293177 0.281592 1.083432
v 1.264988 -0.018934 1.074881
v 1.264988 0.281592 1.074881
v 1.239010 -0.018934 1.060996
v 1.239010 0.281592 1.060996
v 1.216240 -0.018934 1.042308
v 1.216240 0.281592 1.042308
v 1.197553 -0.018934 1.019538
v 1.197553 0.281592 1.019538
v 1.183667 -0.018934 0.993560
v 1.183667 0.281592 0.993560
v 1.175116 -0.018934 0.965371
v 1.175116 0.281592 0.965371
v 1.172229 -0.018934 0.936057
v 1.172229 0.281592 0.936057
v 1.175116 -0.018934 0.906742
v 1.175116 0.281592 0.906742
v 1.183667 -0.018934 0.878553
v 1.183667 0.281592 0.878553
v 1.197553 -0.018934 0.852575
v 1.197553 0.281592 0.852575
v 1.216240 -0.018934 0.829805
v 1.216240 0.281592 0.829805
v 1.239010 -0.018934 0.811118
v 1.239010 0.281592 0.811118
v 1.264989 -0.018934 0.797232
v 1.264989 0.281592 0.797232
v 1.293177 -0.018934 0.788681
v 1.293177 0.281592 0.788681
v 1.322492 -0.018934 -0.785794
v 1.322492 0.281592 -0.785794
v 1.351806 -0.018934 -0.788681
v 1.351806 0.281592 -0.788681
v 1.379995 -0.018934 -0.797232
v 1.379995 0.281592 -0.797232
v 1.405973 -0.018934 -0.811118
v 1.405973 0.281592 -0.811118
v 1.428743 -0.018934 -0.829805
v 1.428743 0.281592 -0.829805
v 1.447430 -0.018934 -0.852575
v 1.447430 0.281592 -0.852575
v 1.461316 -0.018934 -0.878554
v 1.461316 0.281592 -0.878554
v 1.469867 -0.018934 -0.906742
v 1.469867 0.281592 -0.906742
v 1.472754 -0.018934 -0.936057
v 1.472754 0.281592 -0.936057
v 1.469867 -0.018934 -0.965371
v 1.469867 0.281592 -0.965371
v 1.461316 -0.018934 -0.993560
v 1.461316 0.281592 -0.993560
v 1.447430 -0.018934 -1.019538
v 1.447430 0.281592 -1.019538
v 1.428743 -0.018934 -1.042309
v 1.428743 0.281592 -1.042309
v 1.405973 -0.018934 -1.060996
v 1.405973 0.281592 -1.060996
v 1.379995 -0.018934 -1.074881
v 1.379995 0.281592 -1.074881
v 1.351806 -0.018934 -1.083432
v 1.351806 0.281592 -1.083432
v 1.322492 -0.018934 -1.086319
v 1.322492 0.281592 -1.086319
v 1.293177 -0.018934 -1.083432
v 1.293177 0.281592 -1.083432
v 1.264988 -0.018934 -1.074881
v 1.264988 0.281592 -1.074881
v 1.239010 -0.018934 -1.060996
v 1.239010 0.281592 -1.060996
v 1.216240 -0.018934 -1.042308
v 1.216240 0.281592 -1.042308
v 1.197553 -0.018934 -1.019538
v 1.197553 0.281592 -1.019538
v 1.183667 -0.018934 -0.993560
v 1.183667 0.281592 -0.993560
v 1.175116 -0.018934 -0.965371
v 1.175116 0.281592 -0.965371
v 1.172229 -0.018934 -0.936057
v 1.172229 0.281592 -0.936057
v 1.175116 -0.018934 -0.906742
v 1.175116 0.281592 -0.906742
v 1.183667 -0.018934 -0.878553
v 1.183667 0.281592 -0.878553
v 1.197553 -0.018934 -0.852575
v 1.197553 0.281592 -0.852575
v 1.216240 -0.018934 -0.829805
v 1.216240 0.281592 -0.829805
v 1.239010 -0.018934 -0.811118
v 1.239010 0.281592 -0.811118
v 1.264989 -0.018934 -0.797232
v 1.264989 0.281592 -0.797232
v 1.293177 -0.018934 -0.788681
v 1.293177 0.281592 -0.788681
v -1.000000 0.262426 -0.763804
v -1.000000 0.262426 1.236196
v -1.599820 1.627654 1.236196
v -1.599821 1.627654 -0.763804
v -1.000000 1.627654 -0.763804
v -0.999999 1.627654 1.236196
v -1.599820 0.262426 1.236196
v -1.599820 0.262426 -0.763804
v 0.000000 0.262426 -0.763805
v 0.000000 0.262426 1.236195
v 0.000000 1.627654 -0.763804
v 0.000000 1.627654 1.236196
v -1.599820 0.262426 -1.290832
v -1.000000 0.262426 -1.290832
v -1.000000 1.627654 -1.290832
v -1.599821 1.627654 -1.290832
v 0.000000 0.262426 -1.290833
v 0.000000 1.627654 -1.290832
v 0.000000 2.521320 -1.290832
v 0.000000 2.521319 -0.763804
v -1.000000 2.521319 -0.763804
v -1.678392 2.521319 -0.763804
v -1.678391 2.521319 1.236196
v -0.947877 2.521319 1.236196
v -1.000000 2.521320 -1.290832
v -1.678392 2.521320 -1.290832
v 0.000000 4.182051 -1.545252
v 0.000000 4.182051 -1.018224
v -1.001598 4.006392 -0.880227
v -1.001598 4.006392 -1.407255
v -1.074331 2.844825 -0.763804
v -1.547699 2.844825 -0.763804
v -1.547698 2.844825 1.236196
v -1.022207 2.844825 1.236196
v -1.074331 2.844825 -1.290832
v -1.547699 2.844825 -1.290832
v -0.919935 1.627654 -0.603673
v -0.919934 1.627654 1.076065
v 0.000000 1.627654 -0.603673
v 0.000000 1.627654 1.076064
v -0.919935 1.639092 -0.603673
v -0.919934 1.639092 1.076065
v 0.000000 1.639092 -0.603673
v 0.000000 1.639092 1.076064
v -0.976918 1.639092 -0.707719
v -0.976916 1.639092 1.180111
v 0.000000 1.639092 -0.707720
v 0.000000 1.639092 1.180111
v -0.945728 1.913604 -0.707719
v -0.945727 1.913604 1.180111
v 0.000000 1.913604 -0.707720
v 0.000000 1.913604 1.180111
v -1.322492 -0.018934 0.785794
v -1.322492 0.281592 0.785794
v -1.351806 -0.018934 0.788681
v -1.351806 0.281592 0.788681
v -1.379995 -0.018934 0.797232
v -1.379995 0.281592 0.797232
v -1.405973 -0.018934 0.811118
v -1.405973 0.281592 0.811118
v -1.428743 -0.018934 0.829805
v -1.428743 0.281592 0.829805
v -1.447430 -0.018934 0.852575
v -1.447430 0.281592 0.852575
v -1.461316 -0.018934 0.878554
v -1.461316 0.281592 0.878554
v -1.469867 -0.018934 0.906742
v -1.469867 0.281592 0.906742
v -1.472754 -0.018934 0.936057
v -1.472754 0.281592 0.936057
v -1.469867 -0.018934 0.965371
v -1.469867 0.281592 0.965371
v -1.461316 -0.018934 0.993560
v -1.461316 0.281592 0.993560
v -1.447430 -0.018934 1.019538
v -1.447430 0.281592 1.019538
v -1.428743 -0.018934 1.042309
v -1.428743 0.281592 1.042309
v -1.405973 -0.018934 1.060996
v -1.405973 0.281592 1.060996
v -1.379995 -0.018934 1.074881
v -1.379995 0.281592 1.074881
v -1.351806 -0.018934 1.083432
v -1.351806 0.281592 1.083432
v -1.322492 -0.018934 1.086319
v -1.322492 0.281592 1.086319
v -1.293177 -0.018934 1.083432
v -1.293177 0.281592 1.083432
v -1.264988 -0.018934 1.074881
v -1.264988 0.281592 1.074881
v -1.239010 -0.018934 1.060996
v -1.239010 0.281592 1.060996
v -1.216240 -0.018934 1.042308
v -1.216240 0.281592 1.042308
v -1.197553 -0.018934 1.019538
v -1.197553 0.281592 1.019538
v -1.183667 -0.018934 0.993560
v -1.183667 0.281592 0.993560
v -1.175116 -0.018934 0.965371
v -1.175116 0.281592 0.965371
v -1.172229 -0.018934 0.936057
v -1.172229 0.281592 0.936057
v -1.175116 -0.018934 0.906742
v -1.175116 0.281592 0.906742
v -1.183667 -0.018934 0.878553
v -1.183667 0.281592 0.878553
v -1.197553 -0.018934 0.852575
v -1.197553 0.281592 0.852575
v -1.216240 -0.018934 0.829805
v -1.216240 0.281592 0.829805
v -1.239010 -0.018934 0.811118
v -1.239010 0.281592 0.811118
v -1.264989 -0.018934 0.797232
v -1.264989 0.281592 0.797232
v -1.293177 -0.018934 0.788681
v -1.293177 0.281592 0.788681
v -1.322492 -0.018934 -0.785794
v -1.322492 0.281592 -0.785794
v -1.351806 -0.018934 -0.788681
v -1.351806 0.281592 -0.788681
v -1.379995 -0.018934 -0.797232
v -1.379995 0.281592 -0.797232
v -1.405973 -0.018934 -0.811118
v -1.405973 0.281592 -0.811118
v -1.428743 -0.018934 -0.829805
v -1.428743 0.281592 -0.829805
v -1.447430 -0.018934 -0.852575
v -1.447430 0.281592 -0.852575
v -1.461316 -0.018934 -0.878554
v -1.461316 0.281592 -0.878554
v -1.469867 -0.018934 -0.906742
v -1.469867 0.281592 -0.906742
v -1.472754 -0.018934 -0.936057
v -1.472754 0.281592 -0.936057
v -1.469867 -0.018934 -0.965371
v -1.469867 0.281592 -0.965371
v -1.461316 -0.018934 -0.993560
v -1.461316 0.281592 -0.993560
v -1.447430 -0.018934 -1.019538
v -1.447430 0.281592 -1.019538
v -1.428743 -0.018934 -1.042309
v -1.428743 0.281592 -1.042309
v -1.405973 -0.018934 -1.060996
v -1.405973 0.281592 -1.060996
v -1.379995 -0.018934 -1.074881
v -1.379995 0.281592 -1.074881
v -1.351806 -0.018934 -1.083432
v -1.351806 0.281592 -1.083432
v -1.322492 -0.018934 -1.086319
v -1.322492 0.281592 -1.086319
v -1.293177 -0.018934 -1.083432
v -1.293177 0.281592 -1.083432
v -1.264988 -0.018934 -1.074881
v -1.264988 0.281592 -1.074881
v -1.239010 -0.018934 -1.060996
v -1.239010 0.281592 -1.060996
v -1.216240 -0.018934 -1.042308
v -1.216240 0.281592 -1.042308
v -1.197553 -0.018934 -1.019538
v -1.197553 0.281592 -1.019538
v -1.183667 -0.018934 -0.993560
v -1.183667 0.281592 -0.993560
v -1.175116 -0.018934 -0.965371
v -1.175116 0.281592 -0.965371
v -1.172229 -0.018934 -0.936057
v -1.172229 0.281592 -0.936057
v -1.175116 -0.018934 -0.906742
v -1.175116 0.281592 -0.906742
v -1.183667 -0.018934 -0.878553
v -1.183667 0.281592 -0.878553
v -1.197553 -0.018934 -0.852575
v -1.197553 0.281592 -0.852575
v -1.216240 -0.018934 -0.829805
v -1.216240 0.281592 -0.829805
v -1.239010 -0.018934 -0.811118
v -1.239010 0.281592 -0.811118
v -1.264989 -0.018934 -0.797232
v -1.264989 0.281592 -0.797232
v -1.293177 -0.018934 -0.788681
v -1.293177 0.281592 -0.788681
vn 0.9962 -0.0876 -0.0000
vn 0.0000 -0.0000 1.0000
vn 0.0000 -1.0000 0.0000
vn 1.0000 0.0000 0.0000
vn 0.0000 0.0000 -1.0000
vn 0.0000 1.0000 0.0000
vn -0.9743 0.2239 -0.0254
vn -0.9746 0.2239 0.0000
vn 1.0000 -0.0011 -0.0000
vn -0.9995 -0.0291 -0.0130
vn 0.1727 0.9850 0.0000
vn -0.0581 0.1169 0.9914
vn 0.0581 -0.1169 -0.9914
vn 0.9272 0.3746 0.0000
vn 0.9936 0.1129 0.0000
vn 0.0980 0.0000 -0.9952
vn 0.2903 0.0000 -0.9569
vn 0.4714 0.0000 -0.8819
vn 0.6344 0.0000 -0.7730
vn 0.7730 0.0000 -0.6344
vn 0.8819 0.0000 -0.4714
vn 0.9569 0.0000 -0.2903
vn 0.9952 0.0000 -0.0980
vn 0.9952 0.0000 0.0980
vn 0.9569 0.0000 0.2903
vn 0.8819 0.0000 0.4714
vn 0.7730 0.0000 0.6344
vn 0.6344 0.0000 0.7730
vn 0.4714 0.0000 0.8819
vn 0.2903 0.0000 0.9569
vn 0.0980 0.0000 0.9952
vn -0.0980 0.0000 0.9952
vn -0.2903 0.0000 0.9569
vn -0.4714 0.0000 0.8819
vn -0.6344 0.0000 0.7730
vn -0.7730 0.0000 0.6344
vn -0.8819 0.0000 0.4714
vn -0.9569 0.0000 0.2903
vn -0.9952 0.0000 0.0980
vn -0.9952 0.0000 -0.0980
vn -0.9569 0.0000 -0.2903
vn -0.8819 0.0000 -0.4714
vn -0.7730 0.0000 -0.6344
vn -0.6344 0.0000 -0.7730
vn -0.4714 0.0000 -0.8819
vn -0.2903 0.0000 -0.9569
vn -0.0980 0.0000 -0.9952
vn -0.9962 -0.0876 -0.0000
vn -1.0000 0.0000 0.0000
vn 0.9743 0.2239 -0.0254
vn 0.9746 0.2239 0.0000
vn -1.0000 -0.0011 -0.0000
vn 0.9995 -0.0291 -0.0130
vn -0.1727 0.9850 0.0000
vn 0.0581 0.1169 0.9914
vn -0.0581 -0.1169 -0.9914
vn -0.9272 0.3746 0.0000
vn -0.9936 0.1129 0.0000
usemtl Material
s off
f 4//1 12//1 18//1 14//1
f 6//2 2//2 7//2 3//2
f 2//3 1//3 8//3 7//3
f 3//1 4//1 14//1 15//1
f 8//4 4//4 3//4 7//4
f 12//5 11//5 17//5 18//5
f 2//2 6//2 174//2 172//2
f 174//6 6//6 28//6 202//6
f 1//3 2//3 172//3 171//3
f 10//5 11//5 12//5 9//5
f 11//5 10//5 179//5 180//5
f 8//3 1//3 10//3 9//3
f 1//3 171//3 179//3 10//3
f 4//4 8//4 9//4 12//4
f 13//7 16//7 24//7 21//7
f 17//8 13//8 21//8 25//8
f 13//9 17//9 20//9 19//9
f 6//2 3//2 15//2 16//2
f 11//5 180//5 181//5 17//5
f 173//2 5//2 13//2 182//2
f 5//10 6//10 16//10 13//10
f 190//11 19//11 20//11 189//11
f 182//12 13//12 19//12 190//12
f 17//13 181//13 189//13 20//13
f 21//6 24//6 23//6 22//6
f 21//6 22//6 26//6 25//6
f 16//2 15//2 23//2 24//2
f 14//14 18//14 26//14 22//14
f 18//5 17//5 25//5 26//5
f 15//14 14//14 22//14 23//14
f 27//5 201//5 205//5 29//5
f 5//6 173//6 201//6 27//6
f 6//6 5//6 27//6 28//6
f 29//3 205//3 209//3 31//3
f 202//2 28//2 30//2 206//2
f 28//4 27//4 29//4 30//4
f 210//2 32//2 34//2 214//2
f 206//3 30//3 32//3 210//3
f 30//3 29//3 31//3 32//3
f 33//6 213//6 214//6 34//6
f 32//15 31//15 33//15 34//15
f 31//5 209//5 213//5 33//5
f 35//16 36//16 38//16 37//16
f 37//17 38//17 40//17 39//17
f 39//18 40//18 42//18 41//18
f 41//19 42//19 44//19 43//19
f 43//20 44//20 46//20 45//20
f 45//21 46//21 48//21 47//21
f 47//22 48//22 50//22 49//22
f 49//23 50//23 52//23 51//23
f 51//24 52//24 54//24 53//24
f 53//25 54//25 56//25 55//25
f 55//26 56//26 58//26 57//26
f 57//27 58//27 60//27 59//27
f 59//28 60//28 62//28 61//28
f 61//29 62//29 64//29 63//29
f 63//30 64//30 66//30 65//30
f 65//31 66//31 68//31 67//31
f 67//32 68//32 70//32 69//32
f 69//33 70//33 72//33 71//33
f 71//34 72//34 74//34 73//34
f 73//35 74//35 76//35 75//35
f 75//36 76//36 78//36 77//36
f 77//37 78//37 80//37 79//37
f 79//38 80//38 82//38 81//38
f 81//39 82//39 84//39 83//39
f 83//40 84//40 86//40 85//40
f 85//41 86//41 88//41 87//41
f 87//42 88//42 90//42 89//42
f 89//43 90//43 92//43 91//43
f 91//44 92//44 94//44 93//44
f 93//45 94//45 96//45 95//45
f 38//6 36//6 98//6 96//6 94//6 92//6 90//6 88//6 86//6 84//6 82//6 80//6 78//6 76//6 74//6 72//6 70//6 68//6 66//6 64//6 62//6 60//6 58//6 56//6 54//6 52//6 50//6 48//6 46//6 44//6 42//6 40//6
f 95//46 96//46 98//46 97//46
f 97//47 98//47 36//47 35//47
f 35//3 37//3 39//3 41//3 43//3 45//3 47//3 49//3 51//3 53//3 55//3 57//3 59//3 61//3 63//3 65//3 67//3 69//3 71//3 73//3 75//3 77//3 79//3 81//3 83//3 85//3 87//3 89//3 91//3 93//3 95//3 97//3
f 99//31 101//31 102//31 100//31
f 101//30 103//30 104//30 102//30
f 103//29 105//29 106//29 104//29
f 105//28 107//28 108//28 106//28
f 107//27 109//27 110//27 108//27
f 109//26 111//26 112//26 110//26
f 111//25 113//25 114//25 112//25
f 113//24 115//24 116//24 114//24
f 115//23 117//23 118//23 116//23
f 117//22 119//22 120//22 118//22
f 119//21 121//21 122//21 120//21
f 121//20 123//20 124//20 122//20
f 123//19 125//19 126//19 124//19
f 125//18 127//18 128//18 126//18
f 127//17 129//17 130//17 128//17
f 129//16 131//16 132//16 130//16
f 131//47 133//47 134//47 132//47
f 133//46 135//46 136//46 134//46
f 135//45 137//45 138//45 136//45
f 137//44 139//44 140//44 138//44
f 139//43 141//43 142//43 140//43
f 141//42 143//42 144//42 142//42
f 143//41 145//41 146//41 144//41
f 145//40 147//40 148//40 146//40
f 147//39 149//39 150//39 148//39
f 149//38 151//38 152//38 150//38
f 151//37 153//37 154//37 152//37
f 153//36 155//36 156//36 154//36
f 155//35 157//35 158//35 156//35
f 157//34 159//34 160//34 158//34
f 102//6 104//6 106//6 108//6 110//6 112//6 114//6 116//6 118//6 120//6 122//6 124//6 126//6 128//6 130//6 132//6 134//6 136//6 138//6 140//6 142//6 144//6 146//6 148//6 150//6 152//6 154//6 156//6 158//6 160//6 162//6 100//6
f 159//33 161//33 162//33 160//33
f 161//32 99//32 100//32 162//32
f 99//3 161//3 159//3 157//3 155//3 153//3 151//3 149//3 147//3 145//3 143//3 141//3 139//3 137//3 135//3 133//3 131//3 129//3 127//3 125//3 123//3 121//3 119//3 117//3 115//3 113//3 111//3 109//3 107//3 105//3 103//3 101//3
f 166//48 184//48 188//48 178//48
f 168//2 165//2 169//2 164//2
f 164//3 169//3 170//3 163//3
f 165//48 185//48 184//48 166//48
f 170//49 169//49 165//49 166//49
f 178//5 188//5 187//5 177//5
f 164//2 172//2 174//2 168//2
f 174//6 202//6 200//6 168//6
f 163//3 171//3 172//3 164//3
f 176//5 175//5 178//5 177//5
f 177//5 180//5 179//5 176//5
f 170//3 175//3 176//3 163//3
f 163//3 176//3 179//3 171//3
f 166//49 178//49 175//49 170//49
f 183//50 193//50 196//50 186//50
f 187//51 197//51 193//51 183//51
f 183//52 191//52 192//52 187//52
f 168//2 186//2 185//2 165//2
f 177//5 187//5 181//5 180//5
f 173//2 182//2 183//2 167//2
f 167//53 183//53 186//53 168//53
f 190//54 189//54 192//54 191//54
f 182//55 190//55 191//55 183//55
f 187//56 192//56 189//56 181//56
f 193//6 194//6 195//6 196//6
f 193//6 197//6 198//6 194//6
f 186//2 196//2 195//2 185//2
f 184//57 194//57 198//57 188//57
f 188//5 198//5 197//5 187//5
f 185//57 195//57 194//57 184//57
f 199//5 203//5 205//5 201//5
f 167//6 199//6 201//6 173//6
f 168//6 200//6 199//6 167//6
f 203//3 207//3 209//3 205//3
f 202//2 206//2 204//2 200//2
f 200//49 204//49 203//49 199//49
f 210//2 214//2 212//2 208//2
f 206//3 210//3 208//3 204//3
f 204//3 208//3 207//3 203//3
f 211//6 212//6 214//6 213//6
f 208//58 212//58 211//58 207//58
f 207//5 211//5 213//5 209//5
f 215//47 217//47 218//47 216//47
f 217//46 219//46 220//46 218//46
f 219//45 221//45 222//45 220//45
f 221//44 223//44 224//44 222//44
f 223//43 225//43 226//43 224//43
f 225//42 227//42 228//42 226//42
f 227//41 229//41 230//41 228//41
f 229//40 231//40 232//40 230//40
f 231//39 233//39 234//39 232//39
f 233//38 235//38 236//38 234//38
f 235//37 237//37 238//37 236//37
f 237//36 239//36 240//36 238//36
f 239//35 241//35 242//35 240//35
f 241//34 243//34 244//34 242//34
f 243//33 245//33 246//33 244//33
f 245//32 247//32 248//32 246//32
f 247//31 249//31 250//31 248//31
f 249//30 251//30 252//30 250//30
f 251//29 253//29 254//29 252//29
f 253//28 255//28 256//28 254//28
f 255//27 257//27 258//27 256//27
f 257//26 259//26 260//26 258//26
f 259//25 261//25 262//25 260//25
f 261//24 263//24 264//24 262//24
f 263//23 265//23 266//23 264//23
f 265//22 267//22 268//22 266//22
f 267//21 269//21 270//21 268//21
f 269//20 271//20 272//20 270//20
f 271//19 273//19 274//19 272//19
f 273//18 275//18 276//18 274//18
f 218//6 220//6 222//6 224//6 226//6 228//6 230//6 232//6 234//6 236//6 238//6 240//6 242//6 244//6 246//6 248//6 250//6 252//6 254//6 256//6 258//6 260//6 262//6 264//6 266//6 268//6 270//6 272//6 274//6 276//6 278//6 216//6
f 275//17 277//17 278//17 276//17
f 277//16 215//16 216//16 278//16
f 215//3 277//3 275//3 273//3 271//3 269//3 267//3 265//3 263//3 261//3 259//3 257//3 255//3 253//3 251//3 249//3 247//3 245//3 243//3 241//3 239//3 237//3 235//3 233//3 231//3 229//3 227//3 225//3 223//3 221//3 219//3 217//3
f 279//32 280//32 282//32 281//32
f 281//33 282//33 284//33 283//33
f 283//34 284//34 286//34 285//34
f 285//35 286//35 288//35 287//35
f 287//36 288//36 290//36 289//36
f 289//37 290//37 292//37 291//37
f 291//38 292//38 294//38 293//38
f 293//39 294//39 296//39 295//39
f 295//40 296//40 298//40 297//40
f 297//41 298//41 300//41 299//41
f 299//42 300//42 302//42 301//42
f 301//43 302//43 304//43 303//43
f 303//44 304//44 306//44 305//44
f 305//45 306//45 308//45 307//45
f 307//46 308//46 310//46 309//46
f 309//47 310//47 312//47 311//47
f 311//16 312//16 314//16 313//16
f 313//17 314//17 316//17 315//17
f 315//18 316//18 318//18 317//18
f 317//19 318//19 320//19 319//19
f 319//20 320//20 322//20 321//20
f 321//21 322//21 324//21 323//21
f 323//22 324//22 326//22 325//22
f 325//23 326//23 328//23 327//23
f 327//24 328//24 330//24 329//24
f 329//25 330//25 332//25 331//25
f 331//26 332//26 334//26 333//26
f 333//27 334//27 336//27 335//27
f 335//28 336//28 338//28 337//28
f 337//29 338//29 340//29 339//29
f 282//6 280//6 342//6 340//6 338//6 336//6 334//6 332//6 330//6 328//6 326//6 324//6 322//6 320//6 318//6 316//6 314//6 312//6 310//6 308//6 306//6 304//6 302//6 300//6 298//6 296//6 294//6 292//6 290//6 288//6 286//6 284//6
f 339//30 340//30 342//30 341//30
f 341//31 342//31 280//31 279//31
f 279//3 281//3 283//3 285//3 287//3 289//3 291//3 293//3 295//3 297//3 299//3 301//3 303//3 305//3 307//3 309//3 311//3 313//3 315//3 317//3 319//3 321//3 323//3 325//3 327//3 329//3 331//3 333//3 335//3 337//3 339//3 341//3
