# Blender v2.79 (sub 0) OBJ File: 'masa2.blend'
# www.blender.org
mtllib masa2.mtl
o Cylinder_Cylinder.002
v -0.214814 0.621110 -0.950024
v -0.214814 0.558651 -0.950024
v -0.019724 0.621110 -0.930809
v -0.019724 0.558651 -0.930809
v 0.167869 0.621110 -0.873903
v 0.167869 0.558651 -0.873903
v 0.340756 0.621110 -0.781493
v 0.340756 0.558651 -0.781493
v 0.492293 0.621110 -0.657131
v 0.492293 0.558651 -0.657131
v 0.616656 0.621110 -0.505594
v 0.616656 0.558651 -0.505594
v 0.709065 0.621110 -0.332707
v 0.709065 0.558651 -0.332707
v 0.765971 0.621110 -0.145114
v 0.765971 0.558651 -0.145114
v 0.785186 0.621110 0.049976
v 0.785186 0.558651 0.049976
v 0.765971 0.621110 0.245066
v 0.765971 0.558651 0.245066
v 0.709065 0.621110 0.432659
v 0.709065 0.558651 0.432659
v 0.616656 0.621110 0.605546
v 0.616656 0.558651 0.605546
v 0.492293 0.621110 0.757083
v 0.492293 0.558651 0.757083
v 0.340756 0.621110 0.881446
v 0.340756 0.558651 0.881446
v 0.167869 0.621110 0.973856
v 0.167869 0.558651 0.973856
v -0.019724 0.621110 1.030761
v -0.019724 0.558651 1.030761
v -0.214814 0.621110 1.049976
v -0.214814 0.558651 1.049976
v -0.409905 0.621110 1.030761
v -0.409905 0.558651 1.030761
v -0.597498 0.621110 0.973855
v -0.597498 0.558651 0.973855
v -0.770385 0.621110 0.881445
v -0.770385 0.558651 0.881445
v -0.921921 0.621110 0.757082
v -0.921921 0.558651 0.757082
v -1.046284 0.621110 0.605546
v -1.046284 0.558651 0.605546
v -1.138694 0.621110 0.432659
v -1.138694 0.558651 0.432659
v -1.195600 0.621110 0.245066
v -1.195600 0.558651 0.245066
v -1.214814 0.621110 0.049975
v -1.214814 0.558651 0.049975
v -1.195599 0.621110 -0.145115
v -1.195599 0.558651 -0.145115
v -1.138693 0.621110 -0.332708
v -1.138693 0.558651 -0.332708
v -1.046283 0.621110 -0.505595
v -1.046283 0.558651 -0.505595
v -0.921920 0.621110 -0.657132
v -0.921920 0.558651 -0.657132
v -0.770383 0.621110 -0.781494
v -0.770383 0.558651 -0.781494
v -0.597496 0.621110 -0.873904
v -0.597496 0.558651 -0.873904
v -0.409903 0.621110 -0.930809
v -0.409903 0.558651 -0.930809
vt 0.000000 0.000000
vt 0.000000 1.000000
vt 1.000000 1.000000
vt 1.000000 0.000000
vt 0.000000 0.000000
vt 0.000000 1.000000
vt 1.000000 1.000000
vt 1.000000 0.000000
vt 0.000000 0.000000
vt 0.000000 1.000000
vt 1.000000 1.000000
vt 1.000000 0.000000
vt 0.000000 0.000000
vt 0.000000 1.000000
vt 1.000000 1.000000
vt 1.000000 0.000000
vt 0.000000 0.000000
vt 0.000000 1.000000
vt 1.000000 1.000000
vt 1.000000 0.000000
vt 0.000000 0.000000
vt 0.000000 1.000000
vt 1.000000 1.000000
vt 1.000000 0.000000
vt 0.000000 0.000000
vt 0.000000 1.000000
vt 1.000000 1.000000
vt 1.000000 0.000000
vt 0.000000 0.000000
vt 0.000000 1.000000
vt 1.000000 1.000000
vt 1.000000 0.000000
vt 0.000000 0.000000
vt 0.000000 1.000000
vt 1.000000 1.000000
vt 1.000000 0.000000
vt 0.000000 0.000000
vt 0.000000 1.000000
vt 1.000000 1.000000
vt 1.000000 0.000000
vt 0.000000 0.000000
vt 0.000000 1.000000
vt 1.000000 1.000000
vt 1.000000 0.000000
vt 0.000000 0.000000
vt 0.000000 1.000000
vt 1.000000 1.000000
vt 1.000000 0.000000
vt 0.000000 0.000000
vt 0.000000 1.000000
vt 1.000000 1.000000
vt 1.000000 0.000000
vt 0.000000 0.000000
vt 0.000000 1.000000
vt 1.000000 1.000000
vt 1.000000 0.000000
vt 0.000000 0.000000
vt 0.000000 1.000000
vt 1.000000 1.000000
vt 1.000000 0.000000
vt 0.000000 0.000000
vt 0.000000 1.000000
vt 1.000000 1.000000
vt 1.000000 0.000000
vt 0.000000 0.000000
vt 0.000000 1.000000
vt 1.000000 1.000000
vt 1.000000 0.000000
vt 0.000000 0.000000
vt 0.000000 1.000000
vt 1.000000 1.000000
vt 1.000000 0.000000
vt 0.000000 0.000000
vt 0.000000 1.000000
vt 1.000000 1.000000
vt 1.000000 0.000000
vt 0.000000 0.000000
vt 0.000000 1.000000
vt 1.000000 1.000000
vt 1.000000 0.000000
vt 0.000000 0.000000
vt 0.000000 1.000000
vt 1.000000 1.000000
vt 1.000000 0.000000
vt 0.000000 0.000000
vt 0.000000 1.000000
vt 1.000000 1.000000
vt 1.000000 0.000000
vt 0.000000 0.000000
vt 0.000000 1.000000
vt 1.000000 1.000000
vt 1.000000 0.000000
vt 0.000000 0.000000
vt 0.000000 1.000000
vt 1.000000 1.000000
vt 1.000000 0.000000
vt 0.000000 0.000000
vt 0.000000 1.000000
vt 1.000000 1.000000
vt 1.000000 0.000000
vt 0.000000 0.000000
vt 0.000000 1.000000
vt 1.000000 1.000000
vt 1.000000 0.000000
vt 0.000000 0.000000
vt 0.000000 1.000000
vt 1.000000 1.000000
vt 1.000000 0.000000
vt 0.000000 0.000000
vt 0.000000 1.000000
vt 1.000000 1.000000
vt 1.000000 0.000000
vt 0.000000 0.000000
vt 0.000000 1.000000
vt 1.000000 1.000000
vt 1.000000 0.000000
vt 0.000000 0.000000
vt 0.000000 1.000000
vt 1.000000 1.000000
vt 1.000000 0.000000
vt 0.500000 1.000000
vt 0.402456 0.990393
vt 0.308659 0.961940
vt 0.222215 0.915735
vt 0.146447 0.853554
vt 0.084266 0.777786
vt 0.038060 0.691342
vt 0.009607 0.597546
vt 0.000000 0.500000
vt 0.009607 0.402455
vt 0.038060 0.308659
vt 0.084265 0.222215
vt 0.146446 0.146447
vt 0.222215 0.084265
vt 0.308658 0.038060
vt 0.402455 0.009607
vt 0.500000 0.000000
vt 0.597545 0.009607
vt 0.691342 0.038060
vt 0.777785 0.084265
vt 0.853553 0.146447
vt 0.915735 0.222215
vt 0.961940 0.308658
vt 0.990393 0.402455
vt 1.000000 0.500000
vt 0.990393 0.597545
vt 0.961940 0.691342
vt 0.915735 0.777785
vt 0.853553 0.853553
vt 0.777785 0.915735
vt 0.691342 0.961940
vt 0.597545 0.990393
vt 0.000000 0.000000
vt 0.000000 1.000000
vt 1.000000 1.000000
vt 1.000000 0.000000
vt 0.000000 0.000000
vt 0.000000 1.000000
vt 1.000000 1.000000
vt 1.000000 0.000000
vt 0.500000 1.000000
vt 0.402456 0.990393
vt 0.308659 0.961940
vt 0.222215 0.915735
vt 0.146447 0.853554
vt 0.084266 0.777786
vt 0.038060 0.691342
vt 0.009607 0.597546
vt 0.000000 0.500000
vt 0.009607 0.402455
vt 0.038060 0.308659
vt 0.084265 0.222215
vt 0.146446 0.146447
vt 0.222215 0.084265
vt 0.308658 0.038060
vt 0.402455 0.009607
vt 0.500000 0.000000
vt 0.597545 0.009607
vt 0.691342 0.038060
vt 0.777785 0.084265
vt 0.853553 0.146447
vt 0.915735 0.222215
vt 0.961940 0.308658
vt 0.990393 0.402455
vt 1.000000 0.500000
vt 0.990393 0.597545
vt 0.961940 0.691342
vt 0.915735 0.777785
vt 0.853553 0.853553
vt 0.777785 0.915735
vt 0.691342 0.961940
vt 0.597545 0.990393
vn 0.0980 0.0000 -0.9952
vn 0.2903 0.0000 -0.9569
vn 0.4714 0.0000 -0.8819
vn 0.6344 0.0000 -0.7730
vn 0.7730 0.0000 -0.6344
vn 0.8819 0.0000 -0.4714
vn 0.9569 0.0000 -0.2903
vn 0.9952 0.0000 -0.0980
vn 0.9952 0.0000 0.0980
vn 0.9569 0.0000 0.2903
vn 0.8819 0.0000 0.4714
vn 0.7730 0.0000 0.6344
vn 0.6344 0.0000 0.7730
vn 0.4714 0.0000 0.8819
vn 0.2903 0.0000 0.9569
vn 0.0980 0.0000 0.9952
vn -0.0980 0.0000 0.9952
vn -0.2903 0.0000 0.9569
vn -0.4714 0.0000 0.8819
vn -0.6344 0.0000 0.7730
vn -0.7730 0.0000 0.6344
vn -0.8819 0.0000 0.4714
vn -0.9569 0.0000 0.2903
vn -0.9952 0.0000 0.0980
vn -0.9952 0.0000 -0.0980
vn -0.9569 0.0000 -0.2903
vn -0.8819 0.0000 -0.4714
vn -0.7730 0.0000 -0.6344
vn -0.6344 0.0000 -0.7730
vn -0.4714 0.0000 -0.8819
vn 0.0000 -1.0000 -0.0000
vn -0.2903 0.0000 -0.9569
vn -0.0980 0.0000 -0.9952
vn 0.0000 1.0000 0.0000
usemtl None
s off
f 1/1/1 3/2/1 4/3/1 2/4/1
f 3/5/2 5/6/2 6/7/2 4/8/2
f 5/9/3 7/10/3 8/11/3 6/12/3
f 7/13/4 9/14/4 10/15/4 8/16/4
f 9/17/5 11/18/5 12/19/5 10/20/5
f 11/21/6 13/22/6 14/23/6 12/24/6
f 13/25/7 15/26/7 16/27/7 14/28/7
f 15/29/8 17/30/8 18/31/8 16/32/8
f 17/33/9 19/34/9 20/35/9 18/36/9
f 19/37/10 21/38/10 22/39/10 20/40/10
f 21/41/11 23/42/11 24/43/11 22/44/11
f 23/45/12 25/46/12 26/47/12 24/48/12
f 25/49/13 27/50/13 28/51/13 26/52/13
f 27/53/14 29/54/14 30/55/14 28/56/14
f 29/57/15 31/58/15 32/59/15 30/60/15
f 31/61/16 33/62/16 34/63/16 32/64/16
f 33/65/17 35/66/17 36/67/17 34/68/17
f 35/69/18 37/70/18 38/71/18 36/72/18
f 37/73/19 39/74/19 40/75/19 38/76/19
f 39/77/20 41/78/20 42/79/20 40/80/20
f 41/81/21 43/82/21 44/83/21 42/84/21
f 43/85/22 45/86/22 46/87/22 44/88/22
f 45/89/23 47/90/23 48/91/23 46/92/23
f 47/93/24 49/94/24 50/95/24 48/96/24
f 49/97/25 51/98/25 52/99/25 50/100/25
f 51/101/26 53/102/26 54/103/26 52/104/26
f 53/105/27 55/106/27 56/107/27 54/108/27
f 55/109/28 57/110/28 58/111/28 56/112/28
f 57/113/29 59/114/29 60/115/29 58/116/29
f 59/117/30 61/118/30 62/119/30 60/120/30
f 4/121/31 6/122/31 8/123/31 10/124/31 12/125/31 14/126/31 16/127/31 18/128/31 20/129/31 22/130/31 24/131/31 26/132/31 28/133/31 30/134/31 32/135/31 34/136/31 36/137/31 38/138/31 40/139/31 42/140/31 44/141/31 46/142/31 48/143/31 50/144/31 52/145/31 54/146/31 56/147/31 58/148/31 60/149/31 62/150/31 64/151/31 2/152/31
f 61/153/32 63/154/32 64/155/32 62/156/32
f 63/157/33 1/158/33 2/159/33 64/160/33
f 1/161/34 63/162/34 61/163/34 59/164/34 57/165/34 55/166/34 53/167/34 51/168/34 49/169/34 47/170/34 45/171/34 43/172/34 41/173/34 39/174/34 37/175/34 35/176/34 33/177/34 31/178/34 29/179/34 27/180/34 25/181/34 23/182/34 21/183/34 19/184/34 17/185/34 15/186/34 13/187/34 11/188/34 9/189/34 7/190/34 5/191/34 3/192/34
o Cube.001_Cube.007
v 0.587830 -0.559288 -0.006404
v 0.582298 -0.564819 -0.006404
v 0.582298 -0.559288 -0.011935
v 0.587830 -0.559288 0.069690
v 0.582298 -0.559288 0.075222
v 0.582298 -0.564819 0.069690
v 0.506204 -0.559288 0.075222
v 0.500673 -0.559288 0.069690
v 0.506204 -0.564819 0.069690
v 0.506204 -0.559288 -0.011935
v 0.506204 -0.564819 -0.006404
v 0.500673 -0.559288 -0.006404
v 0.582298 0.559288 -0.011935
v 0.582298 0.564819 -0.006404
v 0.587830 0.559288 -0.006404
v 0.582298 0.559288 0.075222
v 0.587830 0.559288 0.069690
v 0.582298 0.564819 0.069690
v 0.500673 0.559288 0.069690
v 0.506204 0.559288 0.075222
v 0.506204 0.564819 0.069690
v 0.500673 0.559288 -0.006404
v 0.506204 0.564819 -0.006404
v 0.506204 0.559288 -0.011935
vt 0.000000 0.000000
vt 1.000000 0.000000
vt 1.000000 1.000000
vt 0.000000 1.000000
vt 0.000000 0.000000
vt 1.000000 0.000000
vt 1.000000 1.000000
vt 0.000000 1.000000
vt 0.000000 0.000000
vt 1.000000 0.000000
vt 1.000000 1.000000
vt 0.000000 1.000000
vt 0.000000 0.000000
vt 1.000000 0.000000
vt 1.000000 1.000000
vt 0.000000 1.000000
vt 0.000000 0.000000
vt 1.000000 0.000000
vt 1.000000 1.000000
vt 0.000000 1.000000
vt 0.000000 0.000000
vt 1.000000 0.000000
vt 1.000000 1.000000
vt 0.000000 0.000000
vt 1.000000 0.000000
vt 1.000000 1.000000
vt 0.000000 0.000000
vt 1.000000 0.000000
vt 0.000000 0.000000
vt 1.000000 0.000000
vt 1.000000 1.000000
vt 1.000000 0.000000
vt 1.000000 1.000000
vt 0.000000 0.000000
vt 1.000000 0.000000
vt 1.000000 1.000000
vt 0.000000 0.000000
vt 1.000000 0.000000
vt 0.000000 0.000000
vt 1.000000 1.000000
vt 1.000000 0.000000
vt 0.000000 1.000000
vt 0.000000 1.000000
vt 0.000000 0.000000
vt 1.000000 0.000000
vt 0.000000 1.000000
vt 1.000000 0.000000
vt 0.000000 1.000000
vt 1.000000 1.000000
vt 0.000000 1.000000
vt 1.000000 0.000000
vt 1.000000 1.000000
vt 0.000000 1.000000
vt 1.000000 1.000000
vt 0.000000 1.000000
vt 0.000000 0.000000
vt 1.000000 0.000000
vt 0.000000 1.000000
vt 1.000000 0.000000
vt 1.000000 1.000000
vt 0.000000 1.000000
vt 1.000000 0.000000
vt 1.000000 1.000000
vt 0.000000 1.000000
vt 0.000000 0.000000
vt 1.000000 0.000000
vt 0.000000 1.000000
vt 0.000000 0.000000
vt 0.000000 1.000000
vt 1.000000 0.000000
vt 0.000000 1.000000
vn 0.0000 0.0000 -1.0000
vn 0.0000 -1.0000 0.0000
vn -1.0000 0.0000 -0.0000
vn 0.0000 1.0000 0.0000
vn -0.0000 -0.0000 1.0000
vn 0.5773 -0.5774 -0.5774
vn 0.5773 -0.5773 0.5774
vn -0.5773 -0.5773 0.5774
vn -0.5773 -0.5774 -0.5773
vn 0.5773 0.5774 -0.5774
vn 0.5773 0.5774 0.5774
vn -0.5774 0.5773 0.5774
vn -0.5773 0.5774 -0.5773
vn 0.7071 -0.7071 0.0000
vn 0.0000 -0.7071 -0.7071
vn 0.7071 -0.0000 -0.7071
vn -0.0000 -0.7071 0.7071
vn 0.7071 -0.0000 0.7071
vn -0.7071 -0.7071 -0.0000
vn -0.7071 -0.0000 0.7071
vn -0.7071 0.0000 -0.7071
vn 0.7071 0.7071 0.0000
vn 0.0000 0.7071 -0.7071
vn -0.0000 0.7071 0.7071
vn -0.7071 0.7071 -0.0000
vn 1.0000 -0.0000 0.0000
usemtl Material
s off
f 77/193/35 67/194/35 74/195/35 88/196/35
f 66/197/36 70/198/36 73/199/36 75/200/36
f 72/201/37 83/202/37 86/203/37 76/204/37
f 78/205/38 87/206/38 85/207/38 82/208/38
f 69/209/39 80/210/39 84/211/39 71/212/39
f 65/213/40 66/214/40 67/215/40
f 68/216/41 69/217/41 70/218/41
f 71/219/42 72/220/42 73/199/42
f 74/221/43 75/222/43 76/223/43
f 77/193/44 78/224/44 79/225/44
f 80/226/45 81/227/45 82/228/45
f 83/229/46 84/230/46 85/207/46
f 86/231/47 87/206/47 88/232/47
f 65/213/48 68/233/48 70/218/48 66/234/48
f 66/197/49 75/222/49 74/195/49 67/235/49
f 67/236/50 77/237/50 79/225/50 65/238/50
f 69/209/51 71/239/51 73/199/51 70/240/51
f 68/216/52 81/227/52 80/241/52 69/242/52
f 72/201/53 76/243/53 75/244/53 73/245/53
f 71/219/54 84/230/54 83/246/54 72/247/54
f 76/248/55 86/249/55 88/232/55 74/250/55
f 78/205/56 82/251/56 81/252/56 79/253/56
f 77/193/57 88/254/57 87/255/57 78/256/57
f 82/257/58 85/258/58 84/211/58 80/259/58
f 85/260/59 87/206/59 86/203/59 83/261/59
f 65/213/60 79/262/60 81/252/60 68/263/60
o Cube.000_Cube.006
v -0.764556 -0.559288 0.535924
v -0.770087 -0.564819 0.535924
v -0.770087 -0.559288 0.530392
v -0.764556 -0.559288 0.612018
v -0.770087 -0.559288 0.617549
v -0.770087 -0.564819 0.612018
v -0.846181 -0.559288 0.617549
v -0.851713 -0.559288 0.612018
v -0.846181 -0.564819 0.612018
v -0.846181 -0.559288 0.530392
v -0.846181 -0.564819 0.535924
v -0.851713 -0.559288 0.535924
v -0.770087 0.559288 0.530392
v -0.770087 0.564819 0.535924
v -0.764556 0.559288 0.535924
v -0.770087 0.559288 0.617549
v -0.764556 0.559288 0.612018
v -0.770087 0.564819 0.612018
v -0.851713 0.559288 0.612018
v -0.846181 0.559288 0.617549
v -0.846181 0.564819 0.612018
v -0.851713 0.559288 0.535924
v -0.846181 0.564819 0.535924
v -0.846181 0.559288 0.530392
vt 0.000000 0.000000
vt 1.000000 0.000000
vt 1.000000 1.000000
vt 0.000000 1.000000
vt 0.000000 0.000000
vt 1.000000 0.000000
vt 1.000000 1.000000
vt 0.000000 1.000000
vt 0.000000 0.000000
vt 1.000000 0.000000
vt 1.000000 1.000000
vt 0.000000 1.000000
vt 0.000000 0.000000
vt 1.000000 0.000000
vt 1.000000 1.000000
vt 0.000000 1.000000
vt 0.000000 0.000000
vt 1.000000 0.000000
vt 1.000000 1.000000
vt 0.000000 1.000000
vt 0.000000 0.000000
vt 1.000000 0.000000
vt 1.000000 1.000000
vt 0.000000 0.000000
vt 1.000000 0.000000
vt 1.000000 1.000000
vt 0.000000 0.000000
vt 1.000000 0.000000
vt 0.000000 0.000000
vt 1.000000 0.000000
vt 1.000000 1.000000
vt 1.000000 0.000000
vt 1.000000 1.000000
vt 0.000000 0.000000
vt 1.000000 0.000000
vt 1.000000 1.000000
vt 0.000000 0.000000
vt 1.000000 0.000000
vt 0.000000 0.000000
vt 1.000000 1.000000
vt 1.000000 0.000000
vt 0.000000 1.000000
vt 0.000000 1.000000
vt 0.000000 0.000000
vt 1.000000 0.000000
vt 0.000000 1.000000
vt 1.000000 0.000000
vt 0.000000 1.000000
vt 1.000000 1.000000
vt 0.000000 1.000000
vt 1.000000 0.000000
vt 1.000000 1.000000
vt 0.000000 1.000000
vt 1.000000 1.000000
vt 0.000000 1.000000
vt 0.000000 0.000000
vt 1.000000 0.000000
vt 0.000000 1.000000
vt 1.000000 0.000000
vt 1.000000 1.000000
vt 0.000000 1.000000
vt 1.000000 0.000000
vt 1.000000 1.000000
vt 0.000000 1.000000
vt 0.000000 0.000000
vt 1.000000 0.000000
vt 0.000000 1.000000
vt 0.000000 0.000000
vt 0.000000 1.000000
vt 1.000000 0.000000
vt 0.000000 1.000000
vn 0.0000 0.0000 -1.0000
vn 0.0000 -1.0000 0.0000
vn -1.0000 0.0000 -0.0000
vn 0.0000 1.0000 0.0000
vn -0.0000 -0.0000 1.0000
vn 0.5773 -0.5773 -0.5774
vn 0.5773 -0.5774 0.5774
vn -0.5773 -0.5773 0.5774
vn -0.5773 -0.5773 -0.5774
vn 0.5773 0.5774 -0.5773
vn 0.5773 0.5774 0.5774
vn -0.5773 0.5773 0.5774
vn -0.5773 0.5773 -0.5774
vn 0.7071 -0.7071 0.0000
vn 0.0000 -0.7071 -0.7071
vn 0.7071 -0.0000 -0.7071
vn -0.0000 -0.7071 0.7071
vn 0.7071 0.0000 0.7071
vn -0.7071 -0.7071 -0.0000
vn -0.7071 0.0000 0.7071
vn -0.7071 0.0000 -0.7071
vn 0.7071 0.7071 0.0000
vn 0.0000 0.7071 -0.7071
vn -0.0000 0.7071 0.7071
vn -0.7071 0.7071 -0.0000
vn 1.0000 -0.0000 0.0000
usemtl Material
s off
f 101/264/61 91/265/61 98/266/61 112/267/61
f 90/268/62 94/269/62 97/270/62 99/271/62
f 96/272/63 107/273/63 110/274/63 100/275/63
f 102/276/64 111/277/64 109/278/64 106/279/64
f 93/280/65 104/281/65 108/282/65 95/283/65
f 89/284/66 90/285/66 91/286/66
f 92/287/67 93/288/67 94/289/67
f 95/290/68 96/291/68 97/270/68
f 98/292/69 99/293/69 100/294/69
f 101/264/70 102/295/70 103/296/70
f 104/297/71 105/298/71 106/299/71
f 107/300/72 108/301/72 109/278/72
f 110/302/73 111/277/73 112/303/73
f 89/284/74 92/304/74 94/289/74 90/305/74
f 90/268/75 99/293/75 98/266/75 91/306/75
f 91/307/76 101/308/76 103/296/76 89/309/76
f 93/280/77 95/310/77 97/270/77 94/311/77
f 92/287/78 105/298/78 104/312/78 93/313/78
f 96/272/79 100/314/79 99/315/79 97/316/79
f 95/290/80 108/301/80 107/317/80 96/318/80
f 100/319/81 110/320/81 112/303/81 98/321/81
f 102/276/82 106/322/82 105/323/82 103/324/82
f 101/264/83 112/325/83 111/326/83 102/327/83
f 106/328/84 109/329/84 108/282/84 104/330/84
f 109/331/85 111/277/85 110/274/85 107/332/85
f 89/284/86 103/333/86 105/323/86 92/334/86
o Cube.003
v -0.770705 -0.559288 -0.527450
v -0.776237 -0.564819 -0.527450
v -0.776237 -0.559288 -0.532982
v -0.770705 -0.559288 -0.451356
v -0.776237 -0.559288 -0.445825
v -0.776237 -0.564819 -0.451356
v -0.852331 -0.559288 -0.445825
v -0.857863 -0.559288 -0.451356
v -0.852331 -0.564819 -0.451356
v -0.852331 -0.559288 -0.532982
v -0.852331 -0.564819 -0.527450
v -0.857862 -0.559288 -0.527450
v -0.776237 0.559288 -0.532982
v -0.776237 0.564819 -0.527450
v -0.770705 0.559288 -0.527450
v -0.776237 0.559288 -0.445825
v -0.770705 0.559288 -0.451356
v -0.776237 0.564819 -0.451356
v -0.857863 0.559288 -0.451356
v -0.852331 0.559288 -0.445825
v -0.852331 0.564819 -0.451356
v -0.857862 0.559288 -0.527450
v -0.852331 0.564819 -0.527450
v -0.852331 0.559288 -0.532982
vt 0.000000 0.000000
vt 1.000000 0.000000
vt 1.000000 1.000000
vt 0.000000 1.000000
vt 0.000000 0.000000
vt 1.000000 0.000000
vt 1.000000 1.000000
vt 0.000000 1.000000
vt 0.000000 0.000000
vt 1.000000 0.000000
vt 1.000000 1.000000
vt 0.000000 1.000000
vt 0.000000 0.000000
vt 1.000000 0.000000
vt 1.000000 1.000000
vt 0.000000 1.000000
vt 0.000000 0.000000
vt 1.000000 0.000000
vt 1.000000 1.000000
vt 0.000000 1.000000
vt 0.000000 0.000000
vt 1.000000 0.000000
vt 1.000000 1.000000
vt 0.000000 0.000000
vt 1.000000 0.000000
vt 1.000000 1.000000
vt 0.000000 0.000000
vt 1.000000 0.000000
vt 0.000000 0.000000
vt 1.000000 0.000000
vt 1.000000 1.000000
vt 1.000000 0.000000
vt 1.000000 1.000000
vt 0.000000 0.000000
vt 1.000000 0.000000
vt 1.000000 1.000000
vt 0.000000 0.000000
vt 1.000000 0.000000
vt 0.000000 0.000000
vt 1.000000 1.000000
vt 1.000000 0.000000
vt 0.000000 1.000000
vt 0.000000 1.000000
vt 0.000000 0.000000
vt 1.000000 0.000000
vt 0.000000 1.000000
vt 1.000000 0.000000
vt 0.000000 1.000000
vt 1.000000 1.000000
vt 0.000000 1.000000
vt 1.000000 0.000000
vt 1.000000 1.000000
vt 0.000000 1.000000
vt 1.000000 1.000000
vt 0.000000 1.000000
vt 0.000000 0.000000
vt 1.000000 0.000000
vt 0.000000 1.000000
vt 1.000000 0.000000
vt 1.000000 1.000000
vt 0.000000 1.000000
vt 1.000000 0.000000
vt 1.000000 1.000000
vt 0.000000 1.000000
vt 0.000000 0.000000
vt 1.000000 0.000000
vt 0.000000 1.000000
vt 0.000000 0.000000
vt 0.000000 1.000000
vt 1.000000 0.000000
vt 0.000000 1.000000
vn 0.0000 0.0000 -1.0000
vn 0.0000 -1.0000 0.0000
vn -1.0000 0.0000 -0.0000
vn 0.0000 1.0000 0.0000
vn 0.0000 0.0000 1.0000
vn 0.5773 -0.5774 -0.5774
vn 0.5774 -0.5773 0.5774
vn -0.5773 -0.5774 0.5774
vn -0.5773 -0.5774 -0.5773
vn 0.5773 0.5774 -0.5774
vn 0.5773 0.5774 0.5774
vn -0.5774 0.5773 0.5774
vn -0.5773 0.5773 -0.5774
vn 0.7071 -0.7071 0.0000
vn 0.0000 -0.7071 -0.7071
vn 0.7071 -0.0000 -0.7071
vn 0.0000 -0.7071 0.7071
vn 0.7071 -0.0000 0.7071
vn -0.7071 -0.7071 -0.0000
vn -0.7071 0.0000 0.7071
vn -0.7071 0.0000 -0.7071
vn 0.7071 0.7071 0.0000
vn 0.0000 0.7071 -0.7071
vn -0.0000 0.7071 0.7071
vn -0.7071 0.7071 -0.0000
vn 1.0000 -0.0000 0.0000
usemtl Material
s off
f 125/335/87 115/336/87 122/337/87 136/338/87
f 114/339/88 118/340/88 121/341/88 123/342/88
f 120/343/89 131/344/89 134/345/89 124/346/89
f 126/347/90 135/348/90 133/349/90 130/350/90
f 117/351/91 128/352/91 132/353/91 119/354/91
f 113/355/92 114/356/92 115/357/92
f 116/358/93 117/359/93 118/360/93
f 119/361/94 120/362/94 121/341/94
f 122/363/95 123/364/95 124/365/95
f 125/335/96 126/366/96 127/367/96
f 128/368/97 129/369/97 130/370/97
f 131/371/98 132/372/98 133/349/98
f 134/373/99 135/348/99 136/374/99
f 113/355/100 116/375/100 118/360/100 114/376/100
f 114/339/101 123/364/101 122/337/101 115/377/101
f 115/378/102 125/379/102 127/367/102 113/380/102
f 117/351/103 119/381/103 121/341/103 118/382/103
f 116/358/104 129/369/104 128/383/104 117/384/104
f 120/343/105 124/385/105 123/386/105 121/387/105
f 119/361/106 132/372/106 131/388/106 120/389/106
f 124/390/107 134/391/107 136/374/107 122/392/107
f 126/347/108 130/393/108 129/394/108 127/395/108
f 125/335/109 136/396/109 135/397/109 126/398/109
f 130/399/110 133/400/110 132/353/110 128/401/110
f 133/402/111 135/348/111 134/345/111 131/403/111
f 113/355/112 127/404/112 129/394/112 116/405/112
