# Blender v2.79 (sub 0) OBJ File: ''
# www.blender.org
mtllib Scaun.mtl
o Sitting_Cube.003
v 0.211609 0.358150 0.157235
v 0.211609 0.393516 0.157235
v 0.211609 0.358150 -0.176007
v 0.211609 0.393516 -0.176007
v 0.618610 0.358150 0.157235
v 0.618610 0.393516 0.157235
v 0.618610 0.358150 -0.176007
v 0.618610 0.393516 -0.176007
vn -1.0000 0.0000 0.0000
vn 0.0000 0.0000 -1.0000
vn 1.0000 0.0000 0.0000
vn 0.0000 0.0000 1.0000
vn 0.0000 -1.0000 0.0000
vn 0.0000 1.0000 0.0000
usemtl None
s off
f 1//1 2//1 4//1 3//1
f 3//2 4//2 8//2 7//2
f 7//3 8//3 6//3 5//3
f 5//4 6//4 2//4 1//4
f 3//5 7//5 5//5 1//5
f 8//6 4//6 2//6 6//6
o Cube.006_Cube.015
v 0.228956 0.545570 -0.137370
v 0.228956 0.514777 -0.137370
v 0.228956 0.545570 -0.160825
v 0.228956 0.514777 -0.160825
v 0.567550 0.545570 -0.137370
v 0.567550 0.514777 -0.137370
v 0.567550 0.545570 -0.160825
v 0.567550 0.514777 -0.160825
vn -1.0000 0.0000 0.0000
vn 0.0000 0.0000 -1.0000
vn 1.0000 0.0000 0.0000
vn 0.0000 0.0000 1.0000
vn 0.0000 1.0000 0.0000
vn 0.0000 -1.0000 0.0000
usemtl None
s off
f 9//7 11//7 12//7 10//7
f 11//8 15//8 16//8 12//8
f 15//9 13//9 14//9 16//9
f 13//10 9//10 10//10 14//10
f 11//11 9//11 13//11 15//11
f 16//12 14//12 10//12 12//12
o Cube.005_Cube.014
v 0.228956 0.685877 -0.165771
v 0.228956 0.655084 -0.165771
v 0.228956 0.685877 -0.189225
v 0.228956 0.655084 -0.189225
v 0.567550 0.685877 -0.165771
v 0.567550 0.655084 -0.165771
v 0.567550 0.685877 -0.189225
v 0.567550 0.655084 -0.189225
vn -1.0000 0.0000 0.0000
vn 0.0000 0.0000 -1.0000
vn 1.0000 0.0000 0.0000
vn 0.0000 0.0000 1.0000
vn 0.0000 1.0000 0.0000
vn 0.0000 -1.0000 0.0000
usemtl None
s off
f 17//13 19//13 20//13 18//13
f 19//14 23//14 24//14 20//14
f 23//15 21//15 22//15 24//15
f 21//16 17//16 18//16 22//16
f 19//17 17//17 21//17 23//17
f 24//18 22//18 18//18 20//18
o Cube.004_Cube.013
v 0.228956 0.802532 -0.192953
v 0.228956 0.771740 -0.192953
v 0.228956 0.802532 -0.216408
v 0.228956 0.771740 -0.216408
v 0.567550 0.802532 -0.192953
v 0.567550 0.771740 -0.192953
v 0.567550 0.802532 -0.216408
v 0.567550 0.771740 -0.216408
vn -1.0000 0.0000 0.0000
vn 0.0000 0.0000 -1.0000
vn 1.0000 0.0000 0.0000
vn 0.0000 0.0000 1.0000
vn 0.0000 1.0000 0.0000
vn 0.0000 -1.0000 0.0000
usemtl None
s off
f 25//19 27//19 28//19 26//19
f 27//20 31//20 32//20 28//20
f 31//21 29//21 30//21 32//21
f 29//22 25//22 26//22 30//22
f 27//23 25//23 29//23 31//23
f 32//24 30//24 26//24 28//24
o Cube.003_Cube.012
v 0.228956 0.916116 -0.182505
v 0.228956 0.885323 -0.182505
v 0.228956 0.916116 -0.205960
v 0.228956 0.885323 -0.205960
v 0.567550 0.916116 -0.182505
v 0.567550 0.885323 -0.182505
v 0.567550 0.916116 -0.205960
v 0.567550 0.885323 -0.205960
vn -1.0000 0.0000 0.0000
vn 0.0000 0.0000 -1.0000
vn 1.0000 0.0000 0.0000
vn 0.0000 0.0000 1.0000
vn 0.0000 1.0000 0.0000
vn 0.0000 -1.0000 0.0000
usemtl None
s off
f 33//25 35//25 36//25 34//25
f 35//26 39//26 40//26 36//26
f 39//27 37//27 38//27 40//27
f 37//28 33//28 34//28 38//28
f 35//29 33//29 37//29 39//29
f 40//30 38//30 34//30 36//30
o Cube.002_Cube.011
v 0.228956 1.014889 -0.175469
v 0.228956 0.984096 -0.175469
v 0.228956 1.014889 -0.198923
v 0.228956 0.984096 -0.198923
v 0.567550 1.014889 -0.175469
v 0.567550 0.984096 -0.175469
v 0.567550 1.014889 -0.198923
v 0.567550 0.984096 -0.198923
vn -1.0000 0.0000 0.0000
vn 0.0000 0.0000 -1.0000
vn 1.0000 0.0000 0.0000
vn 0.0000 0.0000 1.0000
vn 0.0000 1.0000 0.0000
vn 0.0000 -1.0000 0.0000
usemtl None
s off
f 41//31 43//31 44//31 42//31
f 43//32 47//32 48//32 44//32
f 47//33 45//33 46//33 48//33
f 45//34 41//34 42//34 46//34
f 43//35 41//35 45//35 47//35
f 48//36 46//36 42//36 44//36
o Cube.001_Cube.010
v 0.228956 1.014889 -0.175469
v 0.228956 0.984096 -0.175469
v 0.228956 1.014889 -0.198923
v 0.228956 0.984096 -0.198923
v 0.567550 1.014889 -0.175469
v 0.567550 0.984096 -0.175469
v 0.567550 1.014889 -0.198923
v 0.567550 0.984096 -0.198923
vn -1.0000 0.0000 0.0000
vn 0.0000 0.0000 -1.0000
vn 1.0000 0.0000 0.0000
vn 0.0000 0.0000 1.0000
vn 0.0000 1.0000 0.0000
vn 0.0000 -1.0000 0.0000
usemtl None
s off
f 49//37 51//37 52//37 50//37
f 51//38 55//38 56//38 52//38
f 55//39 53//39 54//39 56//39
f 53//40 49//40 50//40 54//40
f 51//41 49//41 53//41 55//41
f 56//42 54//42 50//42 52//42
o Lump.005_Cube.009
v 0.227715 0.384552 -0.111666
v 0.228546 0.385129 -0.114985
v 0.226788 0.385241 -0.116662
v 0.229379 1.054215 -0.163986
v 0.229419 1.056883 -0.165830
v 0.227675 1.054151 -0.165720
v 0.227715 0.384552 -0.155634
v 0.224146 0.390857 -0.133267
v 0.227474 0.388332 -0.162271
v 0.229821 1.054871 -0.209749
v 0.229813 1.052046 -0.211341
v 0.228078 1.052139 -0.209640
v 0.271682 0.384552 -0.111666
v 0.274182 0.385345 -0.117728
v 0.272502 0.385225 -0.115974
v 0.273382 1.056522 -0.165410
v 0.273343 1.053854 -0.163567
v 0.275078 1.053761 -0.165268
v 0.271682 0.384552 -0.155634
v 0.271430 0.388427 -0.163260
v 0.273188 0.388315 -0.161584
v 0.273785 1.054510 -0.209329
v 0.275481 1.051749 -0.209187
v 0.273777 1.051684 -0.210921
v 0.227329 0.801985 -0.182872
v 0.225707 0.801680 -0.184658
v 0.229935 0.793256 -0.229395
v 0.228124 0.793584 -0.227805
v 0.275452 0.793276 -0.225097
v 0.273829 0.792970 -0.226883
v 0.271224 0.801700 -0.180360
v 0.273035 0.801372 -0.181949
v 0.221490 0.550188 -0.131606
v 0.224712 0.544814 -0.176894
v 0.270314 0.544643 -0.173630
v 0.267092 0.550016 -0.128342
v 0.223152 0.550375 -0.129841
v 0.222936 0.545030 -0.175246
v 0.268652 0.544455 -0.175395
v 0.268867 0.549800 -0.129990
vn -0.0338 -0.0702 0.9970
vn 0.9994 -0.0062 0.0331
vn 0.0086 0.9989 -0.0457
vn -0.9994 0.0062 -0.0331
vn 0.0338 0.0656 -0.9973
vn -0.0810 0.9852 0.1510
vn -0.6491 0.4389 0.6213
vn -0.9704 -0.2231 -0.0919
vn -0.6373 0.3797 -0.6706
vn 0.1119 0.9784 0.1741
vn 0.6442 0.4283 0.6337
vn 0.3592 -0.8272 -0.4321
vn 0.6561 0.3691 -0.6583
vn -0.8535 -0.5210 -0.0111
vn -0.7237 -0.0458 0.6886
vn -0.8432 0.5366 -0.0323
vn -0.9862 -0.0418 -0.1604
vn -0.0044 -0.8812 -0.4727
vn 0.0123 0.4908 -0.8712
vn 0.7092 -0.0416 -0.7038
vn 0.7074 -0.7061 -0.0319
vn 0.8524 0.5227 -0.0161
vn 0.7006 0.0759 0.7095
vn 0.0007 0.9868 0.1619
vn -0.0032 0.5685 0.8227
vn 0.0000 -1.0000 0.0000
vn 0.6757 -0.0544 0.7352
vn 0.7240 0.0425 -0.6885
vn -0.6760 0.0512 -0.7351
vn -0.7361 0.1514 0.6597
vn 0.0431 -0.2055 -0.9777
vn -0.9989 0.0091 -0.0459
vn 0.9989 -0.0091 0.0459
vn -0.0431 0.2048 0.9778
vn -0.0055 0.0820 0.9966
vn 0.9997 0.0259 0.0045
vn -0.9997 -0.0169 0.0197
vn 0.0055 -0.0852 -0.9963
vn -0.7092 0.0406 0.7038
vn 0.6751 0.1386 0.7246
vn 0.7361 -0.1519 -0.6596
vn -0.6751 -0.1390 -0.7245
usemtl None
s off
f 87//43 73//43 60//43 81//43
f 85//44 79//44 74//44 88//44
f 78//45 66//45 61//45 72//45
f 82//46 62//46 68//46 84//46
f 83//47 67//47 80//47 86//47
f 57//48 58//48 59//48
f 60//49 61//49 62//49
f 63//50 64//50 65//50
f 66//51 67//51 68//51
f 69//52 70//52 71//52
f 72//53 73//53 74//53
f 75//54 76//54 77//54
f 78//55 79//55 80//55
f 63//56 57//56 59//56 64//56
f 81//57 60//57 62//57 82//57
f 61//58 66//58 68//58 62//58
f 90//59 65//59 64//59 94//59
f 75//60 63//60 65//60 76//60
f 66//61 78//61 80//61 67//61
f 91//62 77//62 76//62 95//62
f 69//63 75//63 77//63 70//63
f 78//64 72//64 74//64 79//64
f 92//65 71//65 70//65 96//65
f 57//66 69//66 71//66 58//66
f 72//67 61//67 60//67 73//67
f 63//68 75//68 69//68 57//68
f 73//69 87//69 88//69 74//69
f 79//70 85//70 86//70 80//70
f 67//71 83//71 84//71 68//71
f 93//72 81//72 82//72 89//72
f 90//73 83//73 86//73 95//73
f 89//74 82//74 84//74 94//74
f 91//75 85//75 88//75 96//75
f 92//76 87//76 81//76 93//76
f 71//77 92//77 93//77 58//77
f 77//78 91//78 96//78 70//78
f 59//79 89//79 94//79 64//79
f 65//80 90//80 95//80 76//80
f 58//81 93//81 89//81 59//81
f 87//82 92//82 96//82 88//82
f 85//83 91//83 95//83 86//83
f 83//84 90//84 94//84 84//84
o Lump.004_Cube.008
v 0.555560 0.380533 -0.117637
v 0.556390 0.381110 -0.120955
v 0.554632 0.381222 -0.122632
v 0.557224 1.050196 -0.169957
v 0.557264 1.052864 -0.171800
v 0.555520 1.050132 -0.171691
v 0.555560 0.380533 -0.161604
v 0.551991 0.386838 -0.139238
v 0.555319 0.384312 -0.168241
v 0.557666 1.050852 -0.215719
v 0.557658 1.048027 -0.217311
v 0.555923 1.048119 -0.215610
v 0.599527 0.380533 -0.117637
v 0.602027 0.381326 -0.123699
v 0.600346 0.381206 -0.121945
v 0.601227 1.052503 -0.171380
v 0.601188 1.049835 -0.169537
v 0.602923 1.049742 -0.171238
v 0.599527 0.380533 -0.161604
v 0.599275 0.384408 -0.169231
v 0.601033 0.384296 -0.167554
v 0.601630 1.050491 -0.215300
v 0.603326 1.047730 -0.215158
v 0.601622 1.047665 -0.216892
v 0.555174 0.797966 -0.188842
v 0.553552 0.797661 -0.190628
v 0.557780 0.789236 -0.235365
v 0.555968 0.789564 -0.233776
v 0.603296 0.789256 -0.231067
v 0.601674 0.788951 -0.232853
v 0.599069 0.797680 -0.186330
v 0.600880 0.797353 -0.187919
v 0.549335 0.546168 -0.137576
v 0.552556 0.540795 -0.182864
v 0.598159 0.540624 -0.179600
v 0.594937 0.545997 -0.134312
v 0.550997 0.546356 -0.135811
v 0.550781 0.541010 -0.181216
v 0.596497 0.540436 -0.181366
v 0.596712 0.545781 -0.135960
vn -0.0338 -0.0702 0.9970
vn 0.9994 -0.0062 0.0331
vn 0.0086 0.9989 -0.0457
vn -0.9994 0.0062 -0.0331
vn 0.0338 0.0656 -0.9973
vn -0.0810 0.9852 0.1510
vn -0.6491 0.4389 0.6214
vn -0.9704 -0.2231 -0.0919
vn -0.6373 0.3797 -0.6706
vn 0.1119 0.9784 0.1741
vn 0.6442 0.4283 0.6337
vn 0.3592 -0.8272 -0.4321
vn 0.6561 0.3691 -0.6583
vn -0.8535 -0.5210 -0.0111
vn -0.7237 -0.0458 0.6886
vn -0.8432 0.5366 -0.0323
vn -0.9862 -0.0418 -0.1604
vn -0.0044 -0.8812 -0.4727
vn 0.0123 0.4908 -0.8712
vn 0.7092 -0.0416 -0.7038
vn 0.7074 -0.7061 -0.0319
vn 0.8524 0.5227 -0.0161
vn 0.7006 0.0759 0.7095
vn 0.0007 0.9868 0.1619
vn -0.0032 0.5685 0.8227
vn 0.0000 -1.0000 0.0000
vn 0.6757 -0.0544 0.7352
vn 0.7240 0.0425 -0.6885
vn -0.6760 0.0512 -0.7351
vn -0.7361 0.1514 0.6597
vn 0.0431 -0.2055 -0.9777
vn -0.9989 0.0091 -0.0459
vn 0.9989 -0.0091 0.0459
vn -0.0431 0.2048 0.9778
vn -0.0055 0.0820 0.9966
vn 0.9997 0.0259 0.0045
vn -0.9997 -0.0169 0.0197
vn 0.0055 -0.0852 -0.9963
vn -0.7092 0.0406 0.7038
vn 0.6751 0.1386 0.7246
vn 0.7361 -0.1519 -0.6596
vn -0.6751 -0.1390 -0.7245
usemtl None
s off
f 127//85 113//85 100//85 121//85
f 125//86 119//86 114//86 128//86
f 118//87 106//87 101//87 112//87
f 122//88 102//88 108//88 124//88
f 123//89 107//89 120//89 126//89
f 97//90 98//90 99//90
f 100//91 101//91 102//91
f 103//92 104//92 105//92
f 106//93 107//93 108//93
f 109//94 110//94 111//94
f 112//95 113//95 114//95
f 115//96 116//96 117//96
f 118//97 119//97 120//97
f 103//98 97//98 99//98 104//98
f 121//99 100//99 102//99 122//99
f 101//100 106//100 108//100 102//100
f 130//101 105//101 104//101 134//101
f 115//102 103//102 105//102 116//102
f 106//103 118//103 120//103 107//103
f 131//104 117//104 116//104 135//104
f 109//105 115//105 117//105 110//105
f 118//106 112//106 114//106 119//106
f 132//107 111//107 110//107 136//107
f 97//108 109//108 111//108 98//108
f 112//109 101//109 100//109 113//109
f 103//110 115//110 109//110 97//110
f 113//111 127//111 128//111 114//111
f 119//112 125//112 126//112 120//112
f 107//113 123//113 124//113 108//113
f 133//114 121//114 122//114 129//114
f 130//115 123//115 126//115 135//115
f 129//116 122//116 124//116 134//116
f 131//117 125//117 128//117 136//117
f 132//118 127//118 121//118 133//118
f 111//119 132//119 133//119 98//119
f 117//120 131//120 136//120 110//120
f 99//121 129//121 134//121 104//121
f 105//122 130//122 135//122 116//122
f 98//123 133//123 129//123 99//123
f 127//124 132//124 136//124 128//124
f 125//125 131//125 135//125 126//125
f 123//126 130//126 134//126 124//126
o Lump.003_Cube.006
v 0.213329 -0.061707 0.146998
v 0.213329 -0.059988 0.148718
v 0.211609 -0.059988 0.146998
v 0.213329 0.356430 0.148718
v 0.213329 0.358150 0.146998
v 0.211609 0.356430 0.146998
v 0.213329 -0.061707 0.103031
v 0.211609 -0.059988 0.103031
v 0.213329 -0.059988 0.101312
v 0.213329 0.358150 0.103031
v 0.213329 0.356430 0.101312
v 0.211609 0.356430 0.103031
v 0.257296 -0.061707 0.146998
v 0.259016 -0.059988 0.146998
v 0.257296 -0.059988 0.148718
v 0.257296 0.358150 0.146998
v 0.257296 0.356430 0.148718
v 0.259016 0.356430 0.146998
v 0.257296 -0.061707 0.103031
v 0.257296 -0.059988 0.101312
v 0.259016 -0.059988 0.103031
v 0.257296 0.358150 0.103031
v 0.259016 0.356430 0.103031
v 0.257296 0.356430 0.101312
vn 0.0000 0.0000 1.0000
vn 1.0000 0.0000 0.0000
vn 0.0000 1.0000 0.0000
vn -1.0000 0.0000 0.0000
vn 0.0000 0.0000 -1.0000
vn -0.5773 -0.5773 0.5774
vn -0.5774 0.5774 0.5773
vn -0.5774 -0.5773 -0.5774
vn -0.5774 0.5774 -0.5773
vn 0.5773 -0.5774 0.5773
vn 0.5774 0.5774 0.5773
vn 0.5773 -0.5774 -0.5773
vn 0.5774 0.5774 -0.5773
vn -0.7071 -0.7071 0.0000
vn -0.7071 0.0000 0.7071
vn -0.7071 0.7071 0.0000
vn -0.7071 0.0000 -0.7071
vn 0.0000 -0.7071 -0.7071
vn 0.0000 0.7071 -0.7071
vn 0.7071 0.0000 -0.7071
vn 0.7071 -0.7071 0.0000
vn 0.7071 0.7071 0.0000
vn 0.7071 0.0000 0.7071
vn 0.0000 -0.7071 0.7071
vn 0.0000 0.7071 0.7071
vn 0.0000 -1.0000 0.0000
usemtl None
s off
f 151//127 153//127 140//127 138//127
f 157//128 159//128 154//128 150//128
f 158//129 146//129 141//129 152//129
f 139//130 142//130 148//130 144//130
f 145//131 147//131 160//131 156//131
f 137//132 138//132 139//132
f 140//133 141//133 142//133
f 143//134 144//134 145//134
f 146//135 147//135 148//135
f 149//136 150//136 151//136
f 152//137 153//137 154//137
f 155//138 156//138 157//138
f 158//139 159//139 160//139
f 143//140 137//140 139//140 144//140
f 138//141 140//141 142//141 139//141
f 141//142 146//142 148//142 142//142
f 147//143 145//143 144//143 148//143
f 155//144 143//144 145//144 156//144
f 146//145 158//145 160//145 147//145
f 159//146 157//146 156//146 160//146
f 149//147 155//147 157//147 150//147
f 158//148 152//148 154//148 159//148
f 153//149 151//149 150//149 154//149
f 137//150 149//150 151//150 138//150
f 152//151 141//151 140//151 153//151
f 143//152 155//152 149//152 137//152
o Lump.002_Cube.005
v 0.215542 -0.060729 -0.117870
v 0.215542 -0.059010 -0.116151
v 0.213822 -0.059010 -0.117870
v 0.215542 0.357408 -0.116151
v 0.215542 0.359128 -0.117870
v 0.213822 0.357408 -0.117870
v 0.215542 -0.060729 -0.161837
v 0.213822 -0.059010 -0.161837
v 0.215542 -0.059010 -0.163557
v 0.215542 0.359128 -0.161837
v 0.215542 0.357408 -0.163557
v 0.213822 0.357408 -0.161837
v 0.259509 -0.060729 -0.117870
v 0.261229 -0.059010 -0.117870
v 0.259509 -0.059010 -0.116151
v 0.259509 0.359128 -0.117870
v 0.259509 0.357408 -0.116151
v 0.261229 0.357408 -0.117870
v 0.259509 -0.060729 -0.161837
v 0.259509 -0.059010 -0.163557
v 0.261229 -0.059010 -0.161837
v 0.259509 0.359128 -0.161837
v 0.261229 0.357408 -0.161837
v 0.259509 0.357408 -0.163557
vn 0.0000 0.0000 1.0000
vn 1.0000 0.0000 0.0000
vn 0.0000 1.0000 0.0000
vn -1.0000 0.0000 0.0000
vn 0.0000 0.0000 -1.0000
vn -0.5773 -0.5774 0.5773
vn -0.5773 0.5774 0.5774
vn -0.5773 -0.5773 -0.5774
vn -0.5773 0.5773 -0.5774
vn 0.5773 -0.5774 0.5773
vn 0.5773 0.5774 0.5774
vn 0.5773 -0.5774 -0.5773
vn 0.5773 0.5774 -0.5774
vn -0.7071 -0.7071 0.0000
vn -0.7071 0.0000 0.7071
vn -0.7071 0.7071 0.0000
vn -0.7071 0.0000 -0.7071
vn 0.0000 -0.7071 -0.7071
vn 0.0000 0.7071 -0.7071
vn 0.7071 0.0000 -0.7071
vn 0.7071 -0.7071 0.0000
vn 0.7071 0.7071 0.0000
vn 0.7071 0.0000 0.7071
vn 0.0000 -0.7071 0.7071
vn 0.0000 0.7071 0.7071
vn 0.0000 -1.0000 0.0000
usemtl None
s off
f 175//153 177//153 164//153 162//153
f 181//154 183//154 178//154 174//154
f 182//155 170//155 165//155 176//155
f 163//156 166//156 172//156 168//156
f 169//157 171//157 184//157 180//157
f 161//158 162//158 163//158
f 164//159 165//159 166//159
f 167//160 168//160 169//160
f 170//161 171//161 172//161
f 173//162 174//162 175//162
f 176//163 177//163 178//163
f 179//164 180//164 181//164
f 182//165 183//165 184//165
f 167//166 161//166 163//166 168//166
f 162//167 164//167 166//167 163//167
f 165//168 170//168 172//168 166//168
f 171//169 169//169 168//169 172//169
f 179//170 167//170 169//170 180//170
f 170//171 182//171 184//171 171//171
f 183//172 181//172 180//172 184//172
f 173//173 179//173 181//173 174//173
f 182//174 176//174 178//174 183//174
f 177//175 175//175 174//175 178//175
f 161//176 173//176 175//176 162//176
f 176//177 165//177 164//177 177//177
f 167//178 179//178 173//178 161//178
o Lump.001_Cube.004
v 0.555560 -0.058548 -0.126313
v 0.555560 -0.056829 -0.124593
v 0.553840 -0.056829 -0.126313
v 0.555560 0.359590 -0.124593
v 0.555560 0.361309 -0.126313
v 0.553840 0.359590 -0.126313
v 0.555560 -0.058548 -0.170280
v 0.553840 -0.056829 -0.170280
v 0.555560 -0.056829 -0.172000
v 0.555560 0.361309 -0.170280
v 0.555560 0.359590 -0.172000
v 0.553840 0.359590 -0.170280
v 0.599527 -0.058548 -0.126313
v 0.601246 -0.056829 -0.126313
v 0.599527 -0.056829 -0.124593
v 0.599527 0.361309 -0.126313
v 0.599527 0.359590 -0.124593
v 0.601246 0.359590 -0.126313
v 0.599527 -0.058548 -0.170280
v 0.599527 -0.056829 -0.172000
v 0.601246 -0.056829 -0.170280
v 0.599527 0.361309 -0.170280
v 0.601246 0.359590 -0.170280
v 0.599527 0.359590 -0.172000
vn 0.0000 0.0000 1.0000
vn 1.0000 0.0000 0.0000
vn 0.0000 1.0000 0.0000
vn -1.0000 0.0000 0.0000
vn 0.0000 0.0000 -1.0000
vn -0.5773 -0.5774 0.5774
vn -0.5773 0.5774 0.5774
vn -0.5774 -0.5774 -0.5774
vn -0.5774 0.5774 -0.5774
vn 0.5773 -0.5774 0.5774
vn 0.5773 0.5774 0.5774
vn 0.5774 -0.5774 -0.5774
vn 0.5774 0.5774 -0.5774
vn -0.7071 -0.7071 0.0000
vn -0.7071 0.0000 0.7071
vn -0.7071 0.7071 0.0000
vn -0.7071 0.0000 -0.7071
vn 0.0000 -0.7071 -0.7071
vn 0.0000 0.7071 -0.7071
vn 0.7071 0.0000 -0.7071
vn 0.7071 -0.7071 0.0000
vn 0.7071 0.7071 0.0000
vn 0.7071 0.0000 0.7071
vn 0.0000 -0.7071 0.7071
vn 0.0000 0.7071 0.7071
vn 0.0000 -1.0000 0.0000
usemtl None
s off
f 199//179 201//179 188//179 186//179
f 205//180 207//180 202//180 198//180
f 206//181 194//181 189//181 200//181
f 187//182 190//182 196//182 192//182
f 193//183 195//183 208//183 204//183
f 185//184 186//184 187//184
f 188//185 189//185 190//185
f 191//186 192//186 193//186
f 194//187 195//187 196//187
f 197//188 198//188 199//188
f 200//189 201//189 202//189
f 203//190 204//190 205//190
f 206//191 207//191 208//191
f 191//192 185//192 187//192 192//192
f 186//193 188//193 190//193 187//193
f 189//194 194//194 196//194 190//194
f 195//195 193//195 192//195 196//195
f 203//196 191//196 193//196 204//196
f 194//197 206//197 208//197 195//197
f 207//198 205//198 204//198 208//198
f 197//199 203//199 205//199 198//199
f 206//200 200//200 202//200 207//200
f 201//201 199//201 198//201 202//201
f 185//202 197//202 199//202 186//202
f 200//203 189//203 188//203 201//203
f 191//204 203//204 197//204 185//204
o Lump_Cube.002
v 0.572596 -0.058548 0.143752
v 0.572596 -0.056829 0.145472
v 0.570876 -0.056829 0.143752
v 0.572596 0.359589 0.145472
v 0.572596 0.361309 0.143752
v 0.570876 0.359589 0.143752
v 0.572596 -0.058548 0.099785
v 0.570876 -0.056829 0.099785
v 0.572596 -0.056829 0.098066
v 0.572596 0.361309 0.099785
v 0.572596 0.359589 0.098066
v 0.570876 0.359589 0.099785
v 0.616563 -0.058548 0.143752
v 0.618283 -0.056829 0.143752
v 0.616563 -0.056829 0.145472
v 0.616563 0.361309 0.143752
v 0.616563 0.359589 0.145472
v 0.618283 0.359589 0.143752
v 0.616563 -0.058548 0.099785
v 0.616563 -0.056829 0.098066
v 0.618283 -0.056829 0.099785
v 0.616563 0.361309 0.099785
v 0.618283 0.359589 0.099785
v 0.616563 0.359589 0.098066
vn 0.0000 0.0000 1.0000
vn 1.0000 0.0000 0.0000
vn 0.0000 1.0000 0.0000
vn -1.0000 0.0000 0.0000
vn 0.0000 0.0000 -1.0000
vn -0.5773 -0.5774 0.5774
vn -0.5773 0.5773 0.5774
vn -0.5773 -0.5774 -0.5774
vn -0.5773 0.5773 -0.5774
vn 0.5773 -0.5774 0.5774
vn 0.5773 0.5773 0.5774
vn 0.5773 -0.5774 -0.5774
vn 0.5773 0.5773 -0.5774
vn -0.7071 -0.7071 0.0000
vn -0.7071 0.0000 0.7071
vn -0.7071 0.7071 0.0000
vn -0.7071 0.0000 -0.7071
vn 0.0000 -0.7071 -0.7071
vn 0.0000 0.7071 -0.7071
vn 0.7071 0.0000 -0.7071
vn 0.7071 -0.7071 0.0000
vn 0.7071 0.7071 0.0000
vn 0.7071 0.0000 0.7071
vn 0.0000 -0.7071 0.7071
vn 0.0000 0.7071 0.7071
vn 0.0000 -1.0000 0.0000
usemtl None
s off
f 223//205 225//205 212//205 210//205
f 229//206 231//206 226//206 222//206
f 230//207 218//207 213//207 224//207
f 211//208 214//208 220//208 216//208
f 217//209 219//209 232//209 228//209
f 209//210 210//210 211//210
f 212//211 213//211 214//211
f 215//212 216//212 217//212
f 218//213 219//213 220//213
f 221//214 222//214 223//214
f 224//215 225//215 226//215
f 227//216 228//216 229//216
f 230//217 231//217 232//217
f 215//218 209//218 211//218 216//218
f 210//219 212//219 214//219 211//219
f 213//220 218//220 220//220 214//220
f 219//221 217//221 216//221 220//221
f 227//222 215//222 217//222 228//222
f 218//223 230//223 232//223 219//223
f 231//224 229//224 228//224 232//224
f 221//225 227//225 229//225 222//225
f 230//226 224//226 226//226 231//226
f 225//227 223//227 222//227 226//227
f 209//228 221//228 223//228 210//228
f 224//229 213//229 212//229 225//229
f 215//230 227//230 221//230 209//230
