# Blender v2.79 (sub 0) OBJ File: 'semne.blend'
# www.blender.org
mtllib semne.mtl
o Semn_Cube.001
v 0.004400 0.042989 0.695351
v 0.004400 0.974414 0.695351
v 0.004400 0.042989 -0.695351
v 0.004400 0.974414 -0.695351
v 0.124517 0.042989 0.695351
v 0.124517 0.974414 0.695351
v 0.124517 0.042989 -0.695351
v 0.124517 0.974414 -0.695351
vt 0.000000 0.000000
vt 1.000000 0.000000
vt 1.000000 1.000000
vt 0.000000 1.000000
vt 0.000000 0.000000
vt 1.000000 0.000000
vt 1.000000 1.000000
vt 0.000000 1.000000
vt 0.000000 0.000000
vt 1.000000 0.000000
vt 1.000000 1.000000
vt 0.000000 1.000000
vt 0.000000 0.000000
vt 1.000000 0.000000
vt 1.000000 1.000000
vt 0.000000 1.000000
vt 1.000000 0.000000
vt 1.000000 1.000000
vt 0.000000 0.000000
vt 0.000000 1.000000
vn -1.0000 0.0000 0.0000
vn 0.0000 0.0000 -1.0000
vn 1.0000 0.0000 0.0000
vn 0.0000 0.0000 1.0000
vn 0.0000 -1.0000 0.0000
vn 0.0000 1.0000 0.0000
usemtl Material.001
s off
f 1/1/1 2/2/1 4/3/1 3/4/1
f 3/5/2 4/6/2 8/7/2 7/8/2
f 7/9/3 8/10/3 6/11/3 5/12/3
f 5/13/4 6/14/4 2/15/4 1/16/4
f 3/5/5 7/17/5 5/18/5 1/16/5
f 8/19/6 4/6/6 2/15/6 6/20/6
o Cube
v 0.064454 -0.608107 -0.064454
v 0.064454 -0.608107 0.064454
v -0.064454 -0.608107 0.064454
v -0.064454 -0.608107 -0.064454
v 0.064454 0.608107 -0.064454
v 0.064454 0.608107 0.064454
v -0.064454 0.608107 0.064454
v -0.064454 0.608107 -0.064454
vt 0.000000 0.000000
vt 1.000000 0.000000
vt 1.000000 1.000000
vt 0.000000 1.000000
vt 0.000000 0.000000
vt 1.000000 0.000000
vt 1.000000 1.000000
vt 0.000000 1.000000
vt 1.000000 0.000000
vt 1.000000 1.000000
vt 0.000000 1.000000
vt 0.000000 0.000000
vt 1.000000 0.000000
vt 0.000000 1.000000
vt 0.000000 0.000000
vt 1.000000 0.000000
vt 1.000000 1.000000
vt 1.000000 0.000000
vt 1.000000 1.000000
vt 0.000000 1.000000
vn 0.0000 -1.0000 -0.0000
vn 0.0000 1.0000 -0.0000
vn 1.0000 0.0000 0.0000
vn -0.0000 -0.0000 1.0000
vn -1.0000 -0.0000 -0.0000
vn 0.0000 0.0000 -1.0000
usemtl Material
s off
f 9/21/7 10/22/7 11/23/7 12/24/7
f 13/25/8 16/26/8 15/27/8 14/28/8
f 9/21/9 13/29/9 14/30/9 10/31/9
f 10/32/10 14/33/10 15/27/10 11/34/10
f 11/35/11 15/36/11 16/37/11 12/24/11
f 13/25/12 9/38/12 12/39/12 16/40/12
