# Blender v2.79 (sub 0) OBJ File: 'kitchencupboardusa.blend'
# www.blender.org
mtllib kitchencupboardusa.mtl
o Cube.001
v 1.770276 -1.353143 1.315375
v 1.770276 1.333392 1.315375
v 1.770276 -1.353143 -1.371159
v 1.770276 1.333392 -1.371159
v 2.038929 -1.353143 1.315375
v 2.038929 1.333392 1.315375
v 2.038929 -1.353143 -1.371159
v 2.038929 1.333392 -1.371159
vn -1.0000 0.0000 0.0000
vn 0.0000 0.0000 -1.0000
vn 1.0000 0.0000 0.0000
vn 0.0000 0.0000 1.0000
vn 0.0000 -1.0000 0.0000
vn 0.0000 1.0000 0.0000
usemtl Material.001
s off
f 1//1 2//1 4//1 3//1
f 3//2 4//2 8//2 7//2
f 7//3 8//3 6//3 5//3
f 5//4 6//4 2//4 1//4
f 3//5 7//5 5//5 1//5
f 8//6 4//6 2//6 6//6
o Cube
v 0.087242 -1.500000 -1.499999
v 0.087242 -1.500000 1.499999
v -0.087243 -1.500000 1.499999
v -0.087242 -1.500000 -1.500000
v 0.087243 1.500000 -1.499998
v 0.087242 1.500000 1.500000
v -0.087243 1.500000 1.499999
v -0.087242 1.500000 -1.499999
v 0.087242 -1.500000 1.272498
v -0.087243 -1.500000 1.272498
v 0.087242 1.500000 1.272499
v -0.087243 1.500000 1.272498
v -0.087242 -1.500000 -1.283358
v -0.087242 1.500000 -1.283357
v 0.087242 -1.500000 -1.283357
v 0.087243 1.500000 -1.283356
v 0.087242 -1.260524 -1.499999
v 0.087242 -1.260524 1.499999
v -0.087243 -1.260524 1.499999
v -0.087242 -1.260524 -1.500000
v -0.087243 -1.260524 1.272498
v 0.087242 -1.260524 1.272499
v 0.087242 -1.260524 -1.283357
v -0.087242 -1.260524 -1.283358
v 0.087243 1.309123 -1.499998
v 0.087242 1.309123 1.500000
v -0.087243 1.309123 1.499999
v -0.087242 1.309123 -1.499999
v -0.087243 1.309123 1.272498
v 0.087242 1.309123 1.272499
v 0.087243 1.309123 -1.283357
v -0.087242 1.309123 -1.283357
v 1.860427 -1.500000 1.272498
v 1.860427 -1.500000 1.499999
v 1.860427 1.309123 -1.499998
v 1.860427 1.500000 -1.499998
v 1.860427 1.309123 1.500000
v 1.860427 1.500000 1.500000
v 1.860427 1.500000 1.272499
v 1.860427 -1.500000 -1.283357
v 1.860427 1.500000 -1.283356
v 1.860427 -1.260524 1.272499
v 1.860427 -1.500000 -1.499999
v 1.860427 -1.260524 -1.283357
v 1.860427 -1.260524 -1.499999
v 1.860427 -1.260524 1.499999
v 1.860427 1.309123 1.272499
v 1.860427 1.309123 -1.283357
vn 0.0000 -1.0000 0.0000
vn 0.0000 1.0000 0.0000
vn -0.0000 -0.0000 1.0000
vn -1.0000 0.0000 0.0000
vn 0.0000 0.0000 -1.0000
vn 1.0000 0.0000 0.0000
usemtl Material
s off
f 17//7 10//7 11//7 18//7
f 19//8 20//8 15//8 14//8
f 24//8 19//8 47//8 49//8
f 34//9 14//9 15//9 35//9
f 40//10 22//10 16//10 36//10
f 25//11 9//11 12//11 28//11
f 35//10 15//10 20//10 37//10
f 9//11 25//11 53//11 51//11
f 24//8 22//8 20//8 19//8
f 23//7 17//7 18//7 21//7
f 9//7 23//7 21//7 12//7
f 13//8 16//8 22//8 24//8
f 17//7 23//7 48//7 41//7
f 37//10 20//10 22//10 40//10
f 18//10 29//10 32//10 21//10
f 39//9 31//9 52//9 56//9
f 14//9 34//9 45//9 46//9
f 11//10 27//10 29//10 18//10
f 33//11 25//11 28//11 36//11
f 21//10 32//10 28//10 12//10
f 10//9 26//9 27//9 11//9
f 30//11 38//11 55//11 50//11
f 13//11 33//11 36//11 16//11
f 29//10 37//10 40//10 32//10
f 38//7 39//7 56//7 55//7
f 31//12 39//12 38//12 30//12
f 27//10 35//10 37//10 29//10
f 32//10 40//10 36//10 28//10
f 26//9 34//9 35//9 27//9
f 33//11 13//11 44//11 43//11
f 55//12 47//12 46//12 45//12
f 56//12 49//12 47//12 55//12
f 43//12 44//12 49//12 56//12
f 51//12 53//12 52//12 48//12
f 48//12 52//12 50//12 41//12
f 41//12 50//12 54//12 42//12
f 53//12 43//12 56//12 52//12
f 50//12 55//12 45//12 54//12
f 26//9 10//9 42//9 54//9
f 25//11 33//11 43//11 53//11
f 23//7 9//7 51//7 48//7
f 10//7 17//7 41//7 42//7
f 34//9 26//9 54//9 45//9
f 19//8 14//8 46//8 47//8
f 13//8 24//8 49//8 44//8
f 31//8 30//8 50//8 52//8
