# Blender v2.79 (sub 0) OBJ File: 'kitchencupboard.blend'
# www.blender.org
mtllib kitchencupboard.mtl
o Cube
v 0.087242 -1.500000 -1.499999
v 0.087242 -1.500000 1.499999
v -0.087243 -1.500000 1.499999
v -0.087242 -1.500000 -1.500000
v 0.087243 1.500000 -1.499998
v 0.087242 1.500000 1.500000
v -0.087243 1.500000 1.499999
v -0.087242 1.500000 -1.499999
v 0.087242 -1.500000 1.272498
v -0.087243 -1.500000 1.272498
v 0.087242 1.500000 1.272499
v -0.087243 1.500000 1.272498
v -0.087242 -1.500000 -1.283358
v -0.087242 1.500000 -1.283357
v 0.087242 -1.500000 -1.283357
v 0.087243 1.500000 -1.283356
v 0.087242 -1.260524 -1.499999
v 0.087242 -1.260524 1.499999
v -0.087243 -1.260524 1.499999
v -0.087242 -1.260524 -1.500000
v -0.087243 -1.260524 1.272498
v 0.087242 -1.260524 1.272499
v 0.087242 -1.260524 -1.283357
v -0.087242 -1.260524 -1.283358
v 0.087243 1.309123 -1.499998
v 0.087242 1.309123 1.500000
v -0.087243 1.309123 1.499999
v -0.087242 1.309123 -1.499999
v -0.087243 1.309123 1.272498
v 0.087242 1.309123 1.272499
v 0.087243 1.309123 -1.283357
v -0.087242 1.309123 -1.283357
v 1.860427 -1.500000 1.272498
v 1.860427 -1.500000 1.499999
v 1.860427 1.309123 -1.499998
v 1.860427 1.500000 -1.499998
v 1.860427 1.309123 1.500000
v 1.860427 1.500000 1.500000
v 1.860427 1.500000 1.272499
v 1.860427 -1.500000 -1.283357
v 1.860427 1.500000 -1.283356
v 1.860427 -1.260524 1.272499
v 1.860427 -1.500000 -1.499999
v 1.860427 -1.260524 -1.283357
v 1.860427 -1.260524 -1.499999
v 1.860427 -1.260524 1.499999
v 1.860427 1.309123 1.272499
v 1.860427 1.309123 -1.283357
vn 0.0000 -1.0000 0.0000
vn 0.0000 1.0000 0.0000
vn -0.0000 -0.0000 1.0000
vn -1.0000 0.0000 0.0000
vn 0.0000 0.0000 -1.0000
vn 1.0000 0.0000 0.0000
usemtl Material
s off
f 9//1 2//1 3//1 10//1
f 11//2 12//2 7//2 6//2
f 16//2 11//2 39//2 41//2
f 26//3 6//3 7//3 27//3
f 32//4 14//4 8//4 28//4
f 17//5 1//5 4//5 20//5
f 27//4 7//4 12//4 29//4
f 1//5 17//5 45//5 43//5
f 16//2 14//2 12//2 11//2
f 15//1 9//1 10//1 13//1
f 1//1 15//1 13//1 4//1
f 5//2 8//2 14//2 16//2
f 9//1 15//1 40//1 33//1
f 29//4 12//4 14//4 32//4
f 10//4 21//4 24//4 13//4
f 31//3 23//3 44//3 48//3
f 6//3 26//3 37//3 38//3
f 3//4 19//4 21//4 10//4
f 25//5 17//5 20//5 28//5
f 13//4 24//4 20//4 4//4
f 2//3 18//3 19//3 3//3
f 22//5 30//5 47//5 42//5
f 5//5 25//5 28//5 8//5
f 21//4 29//4 32//4 24//4
f 30//1 31//1 48//1 47//1
f 23//6 31//6 30//6 22//6
f 19//4 27//4 29//4 21//4
f 24//4 32//4 28//4 20//4
f 18//3 26//3 27//3 19//3
f 25//5 5//5 36//5 35//5
f 47//6 39//6 38//6 37//6
f 48//6 41//6 39//6 47//6
f 35//6 36//6 41//6 48//6
f 43//6 45//6 44//6 40//6
f 40//6 44//6 42//6 33//6
f 33//6 42//6 46//6 34//6
f 45//6 35//6 48//6 44//6
f 42//6 47//6 37//6 46//6
f 18//3 2//3 34//3 46//3
f 17//5 25//5 35//5 45//5
f 15//1 1//1 43//1 40//1
f 2//1 9//1 33//1 34//1
f 26//3 18//3 46//3 37//3
f 11//2 6//2 38//2 39//2
f 5//2 16//2 41//2 36//2
f 23//2 22//2 42//2 44//2
