# Blender v2.79 (sub 0) OBJ File: 'usakitcup.blend'
# www.blender.org
mtllib usakitchencup.mtl
o Cube.001
v 1.770276 -1.353143 1.315375
v 1.770276 1.333392 1.315375
v 1.770276 -1.353143 -1.371159
v 1.770276 1.333392 -1.371159
v 2.038929 -1.353143 1.315375
v 2.038929 1.333392 1.315375
v 2.038929 -1.353143 -1.371159
v 2.038929 1.333392 -1.371159
vn -1.0000 0.0000 0.0000
vn 0.0000 0.0000 -1.0000
vn 1.0000 0.0000 0.0000
vn 0.0000 0.0000 1.0000
vn 0.0000 -1.0000 0.0000
vn 0.0000 1.0000 0.0000
usemtl Material.001
s off
f 1//1 2//1 4//1 3//1
f 3//2 4//2 8//2 7//2
f 7//3 8//3 6//3 5//3
f 5//4 6//4 2//4 1//4
f 3//5 7//5 5//5 1//5
f 8//6 4//6 2//6 6//6
