# Blender v2.79 (sub 0) OBJ File: 'maner.blend'
# www.blender.org
mtllib maner.mtl
o Cube
v -0.121910 0.100380 0.360830
v -0.121910 -0.100380 0.360830
v 0.121910 -0.100380 0.360830
v 0.121910 0.100380 0.360830
v -0.121910 0.100380 -0.360830
v -0.121910 -0.100380 -0.360830
v 0.121910 -0.100380 -0.360830
v 0.121910 0.100380 -0.360830
v -0.121910 0.100380 -0.260599
v -0.121910 -0.100380 -0.260599
v 0.121910 -0.100380 -0.260599
v 0.121910 0.100380 -0.260599
v -0.121910 0.100380 0.253558
v -0.121910 -0.100380 0.253558
v 0.121910 -0.100380 0.253558
v 0.121910 0.100380 0.253558
v -0.331533 0.100380 0.360830
v -0.331533 -0.100380 0.360830
v -0.331533 0.100380 -0.260599
v -0.331533 0.100380 -0.360830
v -0.331533 -0.100380 -0.260599
v -0.331533 -0.100380 -0.360830
v -0.331533 0.100380 0.253558
v -0.331533 -0.100380 0.253558
vn -0.0000 0.0000 1.0000
vn -0.0000 -0.0000 -1.0000
vn 0.0000 -1.0000 0.0000
vn 1.0000 0.0000 -0.0000
vn -0.0000 1.0000 -0.0000
vn -1.0000 -0.0000 0.0000
usemtl Material
s off
f 1//1 2//1 3//1 4//1
f 5//2 8//2 7//2 6//2
f 10//1 9//1 19//1 21//1
f 10//3 6//3 7//3 11//3
f 11//4 7//4 8//4 12//4
f 13//5 1//5 4//5 16//5
f 5//5 9//5 12//5 8//5
f 15//4 11//4 12//4 16//4
f 14//3 10//3 11//3 15//3
f 13//6 9//6 10//6 14//6
f 14//3 2//3 18//3 24//3
f 2//3 14//3 15//3 3//3
f 3//4 15//4 16//4 4//4
f 9//5 13//5 16//5 12//5
f 19//6 20//6 22//6 21//6
f 17//6 23//6 24//6 18//6
f 5//2 6//2 22//2 20//2
f 6//3 10//3 21//3 22//3
f 13//2 14//2 24//2 23//2
f 9//5 5//5 20//5 19//5
f 2//1 1//1 17//1 18//1
f 1//5 13//5 23//5 17//5
